{"glyphs":{"0":{"ha":723,"x_min":54,"x_max":681,"o":"m 358 617 q 288 808 358 755 q 387 899 345 880 q 426 907 407 906 q 439 906 433 907 q 525 841 495 898 q 551 732 541 807 q 557 591 557 654 q 530 357 557 461 q 500 285 517 309 q 435 245 472 247 q 407 251 420 245 q 346 384 346 274 q 353 499 346 422 q 358 617 358 576 m 296 651 l 296 643 q 288 633 294 636 l 282 633 q 271 640 277 636 q 210 720 220 685 l 210 731 q 231 746 212 743 q 263 732 247 745 q 296 651 296 704 m 543 918 l 538 918 q 536 920 538 918 q 533 922 534 921 q 499 962 509 944 q 496 972 496 966 l 496 978 q 519 985 502 987 q 524 982 521 985 q 548 929 548 966 l 548 925 q 543 918 548 921 m 222 831 q 216 831 221 831 q 209 830 210 830 q 152 808 176 826 q 72 629 96 768 q 56 439 56 524 q 60 357 56 399 q 171 110 80 201 q 350 31 250 31 q 388 34 369 31 q 624 277 543 58 q 681 585 680 426 q 642 837 681 716 q 628 876 636 857 q 439 1036 563 1036 q 374 1024 410 1036 q 222 831 278 985 "},"1":{"ha":410,"x_min":50,"x_max":351,"o":"m 313 168 q 350 581 350 354 q 342 818 350 699 q 312 958 336 906 q 203 1035 270 1034 q 140 1016 170 1035 q 61 841 77 971 q 52 670 52 761 q 115 180 52 453 q 151 91 129 121 q 220 50 182 52 q 313 168 293 52 m 290 886 l 286 886 q 281 887 283 886 q 267 911 275 890 q 248 949 262 935 q 245 954 248 951 q 224 975 224 970 l 224 981 q 232 987 227 986 q 244 987 239 990 q 298 895 297 968 q 297 891 297 894 q 290 886 296 888 "},"2":{"ha":692,"x_min":35,"x_max":656,"o":"m 384 1076 q 90 887 227 1074 q 87 884 88 887 q 37 762 37 812 q 49 705 37 732 q 138 647 79 647 q 153 648 145 647 q 236 704 189 654 q 256 726 250 719 q 323 760 292 758 q 351 753 338 760 q 393 669 393 731 q 374 595 393 628 q 277 510 351 556 q 252 495 260 499 q 113 366 176 445 q 66 251 68 308 q 354 83 68 85 q 547 110 445 84 q 590 123 583 121 q 655 237 654 156 q 640 311 655 275 q 530 397 598 396 q 471 382 507 397 q 384 355 407 355 q 377 357 381 355 q 369 357 372 357 q 345 380 354 358 q 362 410 340 397 q 545 587 469 471 q 620 808 618 699 q 568 975 618 901 q 384 1076 498 1076 m 530 888 l 525 888 q 515 895 522 890 q 500 913 510 901 q 491 924 495 920 q 468 952 473 944 q 463 967 464 960 l 463 975 q 464 979 463 977 q 483 987 471 991 q 500 979 491 985 q 537 906 537 952 l 537 899 q 530 888 536 891 m 589 254 l 583 254 q 574 262 581 256 q 559 278 568 266 q 551 289 553 285 q 545 293 549 290 q 521 332 521 319 l 521 340 q 541 351 525 353 q 556 345 548 349 q 595 271 595 320 l 595 264 q 589 254 594 256 "},"3":{"ha":822,"x_min":33,"x_max":792,"o":"m 389 282 q 289 301 349 282 q 161 331 199 331 q 103 320 129 331 q 34 216 34 292 q 62 130 34 170 q 269 37 119 60 q 427 20 363 22 q 600 50 521 22 q 678 92 640 65 q 792 296 792 174 q 751 422 791 361 q 582 537 696 506 q 682 724 681 616 q 663 802 682 764 q 532 913 624 879 q 294 945 442 945 q 210 937 244 945 q 175 925 193 933 q 94 810 94 887 q 100 770 94 791 q 168 703 121 722 q 220 694 193 694 q 260 697 236 694 q 355 709 347 709 q 396 704 376 709 q 458 629 458 684 q 431 575 457 597 q 323 544 408 559 q 308 541 316 544 q 239 479 239 525 q 240 472 239 476 q 283 446 247 446 q 296 448 290 446 q 416 465 366 454 q 434 460 426 463 q 511 378 511 434 q 494 327 510 350 q 389 282 457 282 m 637 734 q 633 734 636 734 q 631 735 632 735 q 594 769 614 739 q 544 822 574 804 q 538 826 543 823 q 503 859 506 845 q 526 878 505 875 q 578 848 547 878 q 623 803 601 826 q 648 750 648 772 l 648 743 q 637 734 646 735 m 728 330 l 720 330 q 685 363 705 334 q 635 418 662 400 q 625 423 632 420 q 593 453 597 438 q 617 472 594 469 q 669 442 636 472 q 712 397 690 420 q 739 345 738 366 l 739 338 q 728 330 736 331 "},"4":{"ha":754,"x_min":49,"x_max":703,"o":"m 228 380 q 235 395 231 387 q 437 735 288 507 q 445 749 439 739 q 457 768 453 761 q 519 943 519 868 q 502 1020 519 985 q 498 1025 500 1023 q 387 1095 457 1095 q 345 1088 370 1095 q 305 1070 324 1081 q 187 906 239 1029 q 72 513 129 761 q 50 363 50 416 q 68 278 50 308 q 73 270 71 274 q 256 195 117 208 q 388 187 342 187 q 477 194 429 187 q 484 160 480 183 q 499 98 494 118 q 500 88 499 94 q 593 -12 529 -12 q 670 88 648 -11 q 701 448 701 256 q 694 636 701 532 q 670 753 689 712 q 667 755 669 754 q 574 818 633 818 q 453 654 473 817 q 445 505 445 579 q 454 338 445 416 q 400 340 419 340 l 334 340 q 233 351 269 340 q 228 380 220 359 m 423 975 q 411 940 423 954 l 406 940 q 401 943 404 941 q 381 1002 388 958 q 381 1017 380 1013 q 395 1028 382 1025 q 403 1025 397 1028 q 423 975 423 1015 m 650 693 l 646 693 q 629 713 633 697 q 614 747 621 741 q 593 768 594 761 l 593 772 q 600 777 595 776 q 612 777 605 780 q 656 701 655 762 q 655 699 656 701 q 650 693 654 694 "},"5":{"ha":863,"x_min":54,"x_max":831,"o":"m 705 479 l 697 479 q 685 486 694 480 q 656 515 674 495 q 635 540 643 533 q 623 551 629 545 q 579 590 586 581 q 574 606 575 597 q 604 629 575 628 q 658 598 623 627 q 716 500 716 548 q 716 494 716 498 q 715 488 715 490 q 705 479 713 481 m 600 819 q 681 833 647 819 q 693 840 686 836 q 753 925 753 871 q 736 977 753 951 q 490 1048 688 1047 q 227 1016 374 1048 q 113 966 149 1001 q 98 948 106 958 q 64 811 75 913 q 56 689 56 732 q 66 589 56 625 q 60 557 61 575 q 69 519 60 538 q 155 475 96 475 q 262 518 198 476 q 281 532 267 522 q 414 590 362 590 q 479 572 448 590 q 536 471 536 536 q 524 420 536 446 q 349 346 483 347 q 298 349 332 346 q 251 350 266 350 q 94 297 140 350 q 62 214 64 262 q 90 130 62 171 q 377 33 157 33 q 605 76 505 33 q 682 118 646 94 q 830 392 830 221 q 817 486 830 438 q 770 582 802 536 q 555 732 690 699 q 457 745 505 745 q 227 690 366 745 q 214 780 214 769 q 250 834 214 833 l 330 841 q 416 836 366 840 q 600 819 571 819 m 671 890 l 663 890 q 632 905 652 892 q 613 916 618 913 q 576 958 578 933 q 605 979 578 978 q 635 968 620 977 q 682 906 681 939 q 681 902 682 905 q 681 899 681 901 q 671 890 678 892 "},"6":{"ha":808,"x_min":50,"x_max":774,"o":"m 453 1054 q 335 1031 389 1054 q 311 1019 323 1025 q 84 696 153 937 q 52 464 52 578 q 149 133 52 270 q 384 -31 241 7 q 468 -41 422 -39 q 661 20 579 -39 q 685 41 673 30 q 773 232 773 122 q 751 331 773 285 q 747 338 750 334 q 416 491 665 491 q 349 490 372 491 q 359 510 350 492 q 453 597 395 567 q 545 629 483 612 q 677 688 642 658 q 734 818 732 738 q 707 918 732 871 q 665 972 690 947 q 453 1054 579 1054 m 655 772 l 648 772 q 640 777 646 774 q 620 819 636 781 q 578 890 602 865 q 544 937 551 917 q 545 942 544 939 q 545 947 545 945 q 548 958 547 951 q 555 962 551 959 q 583 952 568 968 q 643 864 610 925 q 665 793 665 821 q 665 789 665 792 q 663 785 663 787 q 655 772 662 773 m 633 372 q 643 369 637 372 q 684 324 670 355 q 688 312 686 315 q 686 300 688 305 q 656 304 675 278 q 648 317 654 309 q 624 342 639 336 q 614 357 614 350 q 633 372 614 369 m 511 156 q 450 175 490 156 q 358 264 393 208 q 353 275 357 267 q 346 286 349 282 q 387 282 363 283 q 526 266 495 274 q 579 212 578 251 q 572 187 579 199 q 511 156 553 156 "},"7":{"ha":666,"x_min":-15,"x_max":632,"o":"m 212 -95 q 336 -37 277 -94 q 449 152 387 15 q 457 170 453 160 q 620 640 585 460 q 632 755 632 707 q 556 959 632 879 q 221 1099 463 1055 l 134 1108 q 60 1092 95 1108 q -14 974 -14 1057 q 4 898 -14 933 q 126 808 42 826 q 179 803 149 803 q 328 831 231 803 q 392 849 372 844 l 397 849 q 406 841 404 846 l 406 834 q 400 823 403 827 q 138 370 282 662 q 123 339 126 345 q 58 113 58 206 q 75 12 58 58 q 212 -95 114 -95 m 537 888 q 563 867 549 887 q 572 814 572 844 q 552 777 571 780 q 537 793 545 779 q 519 856 524 826 q 518 867 518 860 q 537 888 521 888 "},"8":{"ha":792,"x_min":42,"x_max":758,"o":"m 557 966 q 576 956 567 964 q 600 903 600 936 q 598 899 600 901 q 593 891 598 894 l 589 891 q 543 937 563 906 q 538 948 540 944 l 538 954 q 557 966 541 964 m 671 285 l 663 285 q 652 292 663 285 q 595 354 616 320 q 589 369 590 365 l 589 380 q 591 384 589 380 q 593 387 593 385 q 631 391 608 399 q 642 384 636 388 q 680 302 677 357 l 680 294 q 671 285 678 288 m 281 301 q 315 425 281 350 q 336 476 330 458 q 382 427 351 461 q 448 290 446 357 q 439 250 448 270 q 362 194 418 194 q 330 202 345 195 q 281 301 281 227 m 43 282 q 50 225 43 254 q 163 65 75 125 q 412 -5 262 -4 q 665 76 567 -5 q 674 84 669 80 q 757 259 757 159 q 749 317 757 289 q 722 376 739 347 q 597 500 690 426 q 562 529 572 519 q 601 567 581 545 q 705 810 705 681 q 675 933 705 872 q 637 986 661 960 q 437 1076 556 1076 q 353 1062 396 1076 q 248 1008 297 1047 q 149 800 149 924 q 233 586 149 693 q 240 578 235 585 q 245 571 244 574 q 43 282 46 450 m 568 722 q 548 661 567 688 q 484 606 536 644 q 442 722 442 663 q 444 742 442 732 q 499 796 453 796 q 526 791 513 796 q 568 722 568 773 "},"9":{"ha":815,"x_min":26,"x_max":779,"o":"m 347 -56 q 488 -16 418 -56 q 739 316 658 73 q 777 548 777 437 q 678 879 777 741 q 442 1042 587 1004 q 357 1051 403 1051 q 161 991 244 1051 q 125 962 142 979 q 26 722 26 867 q 88 526 27 617 q 129 477 106 500 q 420 358 245 358 q 537 372 465 358 q 536 369 537 372 q 534 365 536 366 q 456 267 511 304 q 343 222 423 245 q 336 220 340 221 q 189 130 224 186 q 175 80 176 107 q 212 -3 175 34 q 347 -56 264 -56 m 578 880 q 591 873 583 878 q 661 774 651 836 l 661 768 q 637 736 659 738 q 597 773 617 738 q 564 822 574 817 q 549 829 560 825 q 526 859 526 838 q 555 886 528 883 q 578 880 567 886 m 328 697 q 388 682 347 697 q 468 629 431 663 q 441 618 457 625 q 334 590 372 590 q 262 644 263 591 q 263 661 262 652 q 328 697 275 697 "}," ":{"ha":457,"x_min":0,"x_max":0,"o":""},"!":{"ha":495,"x_min":61,"x_max":437,"o":"m 403 77 q 377 170 403 127 q 244 243 332 243 q 155 217 197 243 q 81 79 81 168 q 98 9 83 45 q 115 -23 104 -7 q 243 -91 164 -91 q 334 -60 292 -90 q 403 77 403 -8 m 343 52 l 338 52 q 317 83 326 58 q 301 130 307 125 q 296 136 300 133 q 278 160 278 149 l 278 167 q 285 175 282 174 q 292 176 286 176 q 327 152 305 175 q 350 65 349 121 l 350 60 q 343 52 347 53 m 342 439 q 359 507 349 468 q 427 800 416 726 q 437 894 435 863 q 414 1020 435 962 q 392 1059 406 1039 q 251 1143 336 1143 q 195 1133 222 1143 q 91 1032 123 1105 q 61 880 61 970 q 62 834 61 852 q 71 765 65 802 q 142 452 83 682 q 178 361 160 387 q 247 321 209 321 q 263 323 256 321 q 342 439 319 334 m 361 907 l 354 907 q 334 929 339 913 q 331 939 332 932 q 330 945 330 944 q 305 1009 324 990 q 302 1013 304 1010 q 274 1048 277 1036 l 274 1057 q 300 1067 279 1069 q 327 1054 313 1065 q 369 944 369 1019 l 369 917 q 361 907 368 909 "},"\"":{"ha":541,"x_min":62,"x_max":479,"o":"m 395 1044 q 312 971 342 1043 q 298 886 298 932 q 331 720 298 829 q 343 680 339 693 q 346 670 345 674 q 392 621 359 621 q 433 681 420 623 q 446 738 438 704 q 477 920 477 868 q 458 1005 477 972 q 395 1044 433 1043 m 384 978 q 407 974 396 978 q 411 971 407 972 q 414 968 412 968 q 420 960 418 966 q 410 944 423 944 q 404 945 406 945 q 385 952 389 952 l 374 952 q 358 964 359 955 q 359 968 359 966 q 384 978 362 977 m 159 1044 q 76 971 106 1043 q 62 886 62 932 q 95 720 62 829 q 107 680 103 693 q 110 670 109 674 q 156 621 123 621 q 197 681 184 623 q 210 738 202 704 q 241 920 241 868 q 222 1005 241 972 q 159 1044 197 1043 m 148 978 q 171 974 160 978 q 175 971 171 972 q 178 968 176 968 q 184 960 182 966 q 174 944 187 944 q 168 945 170 945 q 149 952 153 952 l 138 952 q 122 964 123 955 q 123 968 123 966 q 148 978 126 977 "},"#":{"ha":1149,"x_min":83,"x_max":1046,"o":"m 936 901 q 929 925 936 913 q 925 937 925 935 q 925 941 925 939 q 926 945 926 944 q 935 952 928 951 q 956 944 944 954 q 968 892 968 926 q 935 838 964 846 q 924 852 925 841 q 926 867 924 859 q 936 901 936 895 m 941 728 q 963 766 947 739 q 1015 905 1015 853 q 1005 952 1015 929 q 922 1010 982 1010 q 898 1008 907 1010 q 770 867 825 989 q 736 792 760 842 q 713 743 722 760 q 618 732 655 738 q 642 773 625 746 q 688 905 688 854 q 678 952 688 929 q 595 1010 655 1010 q 571 1008 581 1010 q 566 1006 568 1008 q 445 867 496 986 q 407 784 433 840 q 353 665 372 704 q 311 651 339 661 q 269 639 282 643 q 206 586 208 620 q 208 576 206 582 q 281 548 220 548 l 298 548 q 212 350 233 403 l 146 330 q 144 328 145 330 q 83 277 83 309 q 85 266 83 271 q 159 239 99 239 l 165 239 q 157 220 163 231 q 123 104 123 140 q 126 80 123 92 q 190 24 137 24 q 225 33 208 24 q 285 106 252 47 q 355 231 323 170 q 486 227 481 227 q 483 220 484 224 q 450 104 450 138 q 453 80 450 92 q 517 24 464 24 q 552 33 534 24 q 612 106 579 47 q 684 232 667 202 q 802 248 758 240 q 806 248 803 248 q 924 336 924 271 q 887 392 922 370 q 785 425 852 412 q 817 486 795 445 q 846 545 836 525 q 1046 646 1044 564 q 1044 659 1046 652 q 941 728 1035 703 m 610 901 q 602 925 610 911 q 598 937 598 935 q 600 941 598 939 q 600 945 600 944 q 609 952 601 951 q 629 944 617 954 q 642 892 642 926 q 609 838 640 842 q 597 852 598 841 q 600 867 597 859 q 610 901 610 895 m 916 677 q 952 655 943 671 l 952 650 q 943 642 948 643 l 935 642 q 924 646 933 642 q 902 651 916 648 q 909 665 903 655 q 916 677 914 673 m 517 538 q 620 534 618 534 q 597 483 613 517 q 574 431 581 449 q 453 414 525 426 q 486 476 463 434 q 517 538 507 518 m 745 347 q 751 358 746 351 q 757 370 754 366 l 762 370 q 770 369 765 370 q 830 346 823 362 l 830 340 q 821 332 826 334 l 812 332 q 802 336 811 332 q 751 346 789 340 q 749 347 750 346 q 745 347 746 347 "},"$":{"ha":834,"x_min":46,"x_max":781,"o":"m 499 719 q 524 704 513 719 q 537 644 528 697 q 548 614 541 629 q 637 555 579 555 q 667 559 651 555 q 696 574 682 563 q 758 707 758 616 q 715 849 758 780 q 563 981 658 943 q 518 994 537 990 l 518 1020 q 515 1047 517 1032 q 435 1134 499 1134 q 382 1109 407 1133 q 340 974 342 1067 q 283 936 311 959 q 189 730 189 852 q 273 526 190 616 q 326 477 288 510 q 416 372 395 418 q 425 340 425 354 q 423 328 425 335 q 384 298 415 298 q 365 301 372 298 q 359 304 363 302 q 296 388 330 319 q 281 418 286 408 q 179 487 240 486 q 132 475 157 487 q 109 460 121 469 q 47 312 47 408 q 98 152 47 233 q 361 -38 183 9 q 358 -80 358 -64 q 359 -111 358 -95 q 442 -210 372 -210 q 494 -186 469 -209 q 534 -47 534 -144 q 612 -26 574 -41 q 764 126 723 22 q 780 212 780 170 q 718 377 780 301 q 701 396 711 385 q 597 488 685 414 q 476 646 503 568 q 469 681 469 671 q 471 690 469 685 q 499 719 476 719 m 646 798 l 646 789 q 636 779 642 780 q 632 780 635 780 l 631 780 q 620 787 624 783 q 564 848 582 817 q 557 863 559 857 l 557 871 q 582 886 559 884 q 606 879 595 886 q 646 798 642 856 m 699 232 q 694 233 697 232 l 693 233 q 682 240 688 236 q 627 300 643 271 q 620 315 621 311 l 620 326 q 621 330 620 326 q 624 332 623 331 q 659 336 639 345 q 673 328 666 334 q 708 250 707 300 q 708 247 708 250 q 707 243 707 244 q 699 232 705 233 m 247 345 q 247 340 247 343 q 245 336 245 338 q 237 327 244 328 q 233 327 236 327 l 232 328 q 221 334 224 331 q 165 395 183 363 q 159 410 160 404 l 159 418 q 183 433 160 431 q 208 426 195 433 q 247 345 243 403 m 425 1066 q 456 1058 438 1066 q 463 1048 460 1055 q 450 1034 463 1034 q 445 1035 446 1035 q 425 1042 430 1042 q 420 1042 423 1042 q 415 1043 416 1043 q 400 1053 401 1044 l 400 1057 q 425 1066 401 1065 "},"%":{"ha":949,"x_min":43,"x_max":895,"o":"m 784 1051 q 703 1024 743 1051 q 609 916 659 991 q 403 631 541 817 q 94 184 183 338 q 57 83 58 125 q 60 57 57 71 q 126 3 73 3 q 151 5 138 3 q 236 75 190 16 q 802 772 426 305 q 878 901 864 848 q 883 940 883 918 q 872 991 883 967 q 784 1051 846 1051 m 831 932 q 793 860 826 882 q 773 875 776 860 q 780 895 774 884 q 796 932 796 921 q 792 951 796 937 q 789 971 789 964 q 802 985 791 982 q 808 983 804 985 q 831 932 831 977 m 210 730 q 232 800 210 754 q 247 833 244 823 q 254 878 254 859 q 203 979 254 947 q 254 1002 227 1002 q 278 997 266 1002 q 320 842 320 975 q 305 728 319 783 q 256 673 289 674 q 243 674 251 673 q 210 730 210 685 m 161 935 q 180 928 171 935 q 205 871 205 907 q 203 865 203 867 q 197 859 202 861 l 193 859 q 190 860 193 859 q 186 863 187 861 q 148 906 157 888 q 142 917 144 914 l 142 924 q 161 935 145 933 m 296 1043 q 301 1042 297 1043 q 315 1015 315 1035 q 313 1010 315 1013 l 313 1009 l 312 1008 l 309 1008 q 307 1010 309 1008 q 290 1031 297 1020 q 288 1035 288 1034 l 288 1038 q 296 1043 289 1042 m 696 168 q 719 239 696 193 q 734 273 730 262 q 741 316 741 297 q 689 418 739 385 q 741 442 712 441 q 764 435 753 441 q 806 281 806 414 q 792 167 806 221 q 743 111 774 113 q 728 114 736 111 q 696 168 696 125 m 647 373 q 666 366 656 373 q 690 309 690 347 q 689 304 689 305 q 684 297 688 300 l 680 297 q 675 300 678 297 q 673 301 674 301 q 633 345 643 327 q 629 355 629 353 l 629 362 q 647 373 632 372 m 783 481 q 802 453 796 476 q 800 450 800 452 l 800 449 l 799 448 l 796 448 q 793 450 796 448 q 776 469 783 458 q 773 473 774 471 l 773 476 q 783 481 776 480 m 45 807 q 52 738 45 772 q 175 575 76 613 q 224 566 198 566 q 369 688 308 570 q 408 852 408 766 q 351 1017 408 947 q 258 1067 312 1067 q 231 1063 245 1067 q 153 991 179 1048 l 141 991 q 130 989 137 990 q 45 807 45 960 m 530 245 q 537 178 530 210 q 661 14 562 52 q 709 4 684 4 q 856 126 793 8 q 894 290 894 206 q 837 456 894 385 q 745 507 798 506 q 718 503 731 507 q 639 430 665 487 l 628 430 q 617 427 623 430 q 530 245 530 400 "},"&":{"ha":878,"x_min":49,"x_max":845,"o":"m 400 804 q 442 791 422 804 q 486 692 486 760 q 445 583 486 639 q 380 663 401 635 q 340 746 340 712 q 345 766 340 755 q 400 804 358 804 m 765 420 q 753 401 764 403 l 747 401 q 728 426 730 403 q 747 448 730 445 q 765 420 764 446 m 567 898 q 545 871 564 875 q 522 880 533 872 q 471 947 499 899 q 467 960 468 952 q 479 972 468 970 l 486 972 q 547 937 521 966 q 567 898 566 918 m 811 407 q 810 430 811 418 q 750 487 799 487 q 727 483 738 487 q 671 426 701 473 q 640 365 661 407 q 578 433 620 388 q 515 502 536 479 q 670 800 669 665 q 591 986 669 906 q 374 1077 503 1077 q 190 1013 270 1076 q 84 795 84 930 q 197 544 85 675 q 269 469 220 518 q 231 452 247 460 q 71 317 109 393 q 50 232 50 279 q 50 216 50 225 q 133 57 58 125 q 332 -12 212 -12 q 406 -5 363 -12 q 590 73 503 14 q 699 -11 646 16 q 760 -30 731 -28 q 799 -19 781 -30 q 845 69 845 7 q 833 126 844 98 q 773 214 822 152 l 772 216 l 770 217 l 769 218 l 768 220 l 766 221 l 766 222 l 765 224 l 764 225 l 762 227 l 761 228 l 760 231 l 758 232 l 757 233 l 755 235 l 754 236 l 753 237 l 753 239 l 751 240 l 750 241 l 749 243 q 811 407 811 339 m 416 126 q 362 138 388 126 q 301 236 301 168 q 368 368 302 300 q 380 355 372 365 q 391 342 387 346 q 481 216 423 302 q 517 164 505 180 q 416 126 469 127 "},"'":{"ha":305,"x_min":62,"x_max":243,"o":"m 159 1044 q 76 971 106 1043 q 62 886 62 932 q 95 720 62 829 q 107 680 103 693 q 110 670 109 674 q 156 621 123 621 q 197 681 184 623 q 210 738 202 704 q 241 920 241 868 q 222 1005 241 972 q 159 1044 197 1043 m 148 978 q 171 974 160 978 q 175 971 171 972 q 178 968 176 968 q 184 960 182 966 q 174 944 187 944 q 168 945 170 945 q 149 952 153 952 l 138 952 q 122 964 123 955 q 123 968 123 966 q 148 978 126 977 "},"(":{"ha":618,"x_min":8,"x_max":623,"o":"m 467 1067 q 315 1010 399 1067 q 250 958 281 987 q 12 389 43 765 q 8 294 8 343 q 100 -72 8 75 q 273 -233 165 -178 q 431 -270 342 -269 q 606 -194 560 -269 q 623 -140 621 -168 q 595 -80 621 -104 q 513 -60 574 -62 q 471 -56 486 -57 q 458 -53 465 -54 q 274 153 338 -28 q 227 404 227 282 q 237 518 227 467 q 252 574 243 545 q 444 814 305 736 q 473 830 453 819 q 579 905 555 871 q 597 960 597 928 q 581 1015 597 990 q 467 1067 544 1067 m 514 925 q 507 928 513 925 q 486 954 499 935 q 469 975 476 968 q 452 997 452 990 q 465 1012 453 1010 q 496 996 475 1012 q 526 941 521 977 l 526 933 q 514 925 525 926 m 519 -205 l 513 -205 q 502 -193 507 -201 q 499 -184 500 -191 q 498 -176 498 -179 q 480 -153 492 -163 q 471 -146 477 -151 q 450 -123 450 -137 q 480 -106 452 -107 q 506 -111 492 -106 q 543 -165 543 -129 q 519 -205 537 -197 "},")":{"ha":617,"x_min":-5,"x_max":612,"o":"m 155 -271 q 304 -214 218 -270 q 354 -175 330 -197 q 606 408 575 18 q 612 503 610 453 q 519 869 610 723 q 347 1031 454 975 q 187 1066 278 1066 q 12 991 60 1066 q -4 937 -3 967 q 23 878 -4 902 q 106 856 46 860 q 149 853 134 854 q 160 850 155 852 q 346 644 282 826 q 393 393 392 514 q 382 279 393 330 q 368 224 376 251 q 176 -16 313 61 q 140 -37 164 -23 q 41 -107 64 -73 q 22 -163 23 -130 q 39 -217 23 -193 q 155 -271 75 -271 m 399 886 q 441 861 418 884 q 463 817 461 833 q 445 788 461 789 q 430 792 435 788 q 427 800 429 795 q 406 838 415 833 q 397 844 403 841 q 374 868 374 854 q 376 872 376 869 q 399 886 380 886 "},"*":{"ha":305,"x_min":-186,"x_max":488,"o":"m 159 1044 q 106 1021 130 1044 q 65 886 66 981 q 76 791 65 838 q -35 876 15 849 q -109 898 -73 897 q -136 892 -122 897 q -184 829 -184 878 q -152 754 -184 798 q -113 718 -134 735 q 61 648 -65 684 q 52 642 57 646 q -103 519 -61 567 q -140 427 -140 473 q -134 401 -140 415 q -71 361 -117 361 q -9 380 -39 361 q -4 382 -7 381 q 140 566 73 427 q 201 404 170 457 q 301 336 243 338 q 327 342 315 336 q 368 422 368 362 q 365 449 368 431 q 349 502 361 475 q 231 652 321 562 q 248 658 237 655 q 418 715 372 688 q 487 814 486 754 q 486 830 487 822 q 400 882 473 882 q 244 817 330 882 q 236 811 241 815 q 225 803 228 806 q 243 922 243 883 q 237 970 243 947 q 159 1044 217 1044 m 148 978 q 171 974 160 978 q 175 971 171 972 q 178 968 176 968 q 184 960 182 966 q 174 944 187 944 q 168 945 170 945 q 149 952 153 952 l 138 952 q 122 964 123 955 q 123 968 123 966 q 148 978 126 977 m 396 838 q 426 830 408 838 q 433 821 431 827 q 420 806 434 806 q 415 807 416 807 q 396 814 400 814 q 391 814 395 814 q 387 815 388 815 q 370 825 373 817 l 370 829 q 396 838 373 838 m -96 837 q -65 829 -83 837 q -58 819 -61 826 q -71 804 -58 804 q -76 806 -75 806 q -96 812 -91 812 q -100 813 -96 812 q -106 814 -104 814 q -121 823 -119 815 l -121 827 q -96 837 -119 837 "},"+":{"ha":804,"x_min":47,"x_max":755,"o":"m 524 655 l 495 655 q 486 795 494 726 q 408 905 473 902 q 340 793 349 902 q 338 712 339 766 q 336 629 336 656 q 102 548 260 609 q 49 496 50 529 q 50 487 49 492 q 113 458 58 458 q 224 453 149 457 q 340 448 301 449 q 374 250 349 343 q 426 193 392 195 q 465 256 457 195 q 473 346 468 286 q 483 446 480 412 q 651 468 571 450 q 754 556 753 491 q 724 613 753 591 q 524 655 665 655 m 620 591 q 625 590 621 591 q 677 567 670 583 l 677 560 q 669 552 673 553 l 661 552 q 651 556 661 552 q 610 567 635 563 q 594 578 597 568 q 620 591 595 590 m 410 822 q 442 806 438 821 q 427 792 441 795 q 423 793 426 792 q 419 793 420 793 q 410 795 416 793 q 400 796 403 795 q 385 807 387 798 l 385 811 q 410 822 387 821 "},",":{"ha":515,"x_min":132,"x_max":476,"o":"m 132 83 q 189 -15 134 19 q 205 -23 194 -18 q 213 -26 210 -24 q 259 -79 259 -46 q 206 -149 259 -109 q 195 -156 203 -149 q 153 -221 153 -187 q 203 -264 159 -255 q 255 -250 222 -264 q 267 -244 260 -248 q 472 -23 446 -165 q 475 12 475 -12 q 456 99 475 57 q 336 208 418 179 q 281 216 308 214 q 205 197 239 216 q 132 83 132 160 m 415 22 l 411 22 q 407 23 410 23 q 395 50 395 30 q 377 95 389 80 q 355 122 357 114 l 355 127 q 362 136 358 134 q 373 136 368 137 q 376 136 374 136 q 422 35 422 118 l 422 30 q 415 22 420 24 "},"-":{"ha":818,"x_min":54,"x_max":762,"o":"m 530 435 q 388 418 469 434 q 109 327 301 399 q 56 274 57 307 q 57 266 56 270 q 119 236 66 236 q 151 235 133 236 q 427 222 400 222 q 658 245 559 222 q 761 334 760 270 q 731 391 760 369 q 530 435 671 434 m 627 369 q 633 369 628 369 q 684 345 677 361 l 684 338 q 675 330 681 331 l 669 330 q 658 334 669 330 q 617 345 642 340 q 601 355 604 346 q 627 369 602 368 "},".":{"ha":469,"x_min":127,"x_max":426,"o":"m 277 231 q 197 209 233 231 q 127 79 127 165 q 141 14 127 47 q 155 -9 146 3 q 277 -77 201 -77 q 359 -50 320 -77 q 425 77 425 -3 q 401 160 425 122 q 277 231 358 231 m 369 53 l 363 53 q 359 54 362 53 q 347 80 347 61 q 331 125 343 111 q 308 153 311 142 l 308 159 q 315 167 312 165 q 323 168 317 167 q 354 144 334 167 q 374 65 374 117 l 374 60 q 369 53 373 54 "},"/":{"ha":570,"x_min":-28,"x_max":598,"o":"m 152 92 q 312 385 220 208 q 540 822 502 754 q 552 842 544 827 q 597 978 597 925 q 587 1032 597 1006 q 496 1096 560 1096 q 468 1093 479 1096 q 442 1084 456 1090 q 328 936 380 1054 q 297 867 313 906 q -5 179 71 372 q -27 91 -27 122 q -24 60 -27 75 q 46 3 -9 3 q 81 11 64 3 q 152 92 115 26 m 511 974 q 505 1001 511 987 q 499 1016 499 1013 q 499 1020 499 1016 q 500 1024 500 1023 q 510 1032 502 1031 q 532 1023 519 1035 q 547 966 547 1001 q 510 906 544 911 q 498 920 499 909 q 500 939 498 928 q 511 974 511 967 "},":":{"ha":552,"x_min":127,"x_max":426,"o":"m 277 684 q 197 662 233 684 q 127 532 127 618 q 141 467 127 500 q 155 444 146 456 q 277 376 201 376 q 359 403 320 376 q 425 530 425 450 q 401 613 425 575 q 277 684 358 684 m 369 506 l 363 506 q 359 507 362 506 q 347 533 347 514 q 331 578 343 564 q 308 606 311 595 l 308 612 q 315 620 312 618 q 323 621 317 620 q 354 597 334 620 q 374 518 374 570 l 374 513 q 369 506 373 507 m 277 231 q 197 209 233 231 q 127 79 127 165 q 141 14 127 47 q 155 -9 146 3 q 277 -77 201 -77 q 359 -50 320 -77 q 425 77 425 -3 q 401 160 425 122 q 277 231 358 231 m 369 53 l 363 53 q 359 54 362 53 q 347 80 347 61 q 331 125 343 111 q 308 153 311 142 l 308 159 q 315 167 312 165 q 323 168 317 167 q 354 144 334 167 q 374 65 374 117 l 374 60 q 369 53 373 54 "},";":{"ha":608,"x_min":127,"x_max":476,"o":"m 277 686 q 197 665 233 686 q 127 534 127 621 q 141 469 127 503 q 155 446 146 458 q 277 378 201 378 q 359 406 320 378 q 425 533 425 453 q 401 616 425 578 q 277 686 358 686 m 369 509 l 363 509 q 359 510 362 509 q 347 536 347 517 q 331 581 343 567 q 308 609 311 598 l 308 614 q 315 623 312 621 q 323 624 317 623 q 354 600 334 623 q 374 521 374 572 l 374 515 q 369 509 373 510 m 132 83 q 189 -15 134 19 q 205 -23 194 -18 q 213 -26 210 -24 q 259 -79 259 -46 q 206 -149 259 -109 q 195 -156 203 -149 q 153 -221 153 -187 q 203 -264 159 -255 q 255 -250 222 -264 q 267 -244 260 -248 q 472 -23 446 -165 q 475 12 475 -12 q 456 99 475 57 q 336 208 418 179 q 281 216 308 214 q 205 197 239 216 q 132 83 132 160 m 415 22 l 411 22 q 407 23 410 23 q 395 50 395 30 q 377 95 389 80 q 355 122 357 114 l 355 127 q 362 136 358 134 q 373 136 368 137 q 376 136 374 136 q 422 35 422 118 l 422 30 q 415 22 420 24 "},"<":{"ha":614,"x_min":19,"x_max":614,"o":"m 571 777 q 570 785 571 781 q 522 812 563 812 l 517 812 q 359 768 460 812 q 122 640 241 716 q 19 507 20 578 q 92 393 20 450 q 251 297 140 355 q 330 254 304 269 q 357 237 336 250 q 506 183 446 183 l 513 183 q 549 189 532 183 q 614 277 614 208 q 552 389 613 331 q 381 483 480 449 q 282 507 349 494 q 210 524 233 517 q 189 547 183 533 l 190 549 l 190 551 l 191 552 l 191 553 l 193 555 l 193 556 q 209 566 197 559 q 387 661 326 632 q 439 686 403 670 q 530 731 500 715 q 571 777 570 753 m 427 372 q 442 384 429 381 l 448 384 q 519 343 494 382 q 529 313 530 326 q 513 301 528 304 q 498 307 506 302 q 467 331 487 313 q 458 336 464 332 q 427 372 427 358 m 522 766 q 505 750 521 751 q 483 770 487 754 q 499 783 486 780 q 522 766 519 781 "},"=":{"ha":818,"x_min":88,"x_max":795,"o":"m 564 749 q 422 731 503 747 q 142 640 335 712 q 90 587 91 620 q 91 579 90 583 q 153 549 100 549 q 184 548 167 549 q 461 536 434 536 q 692 559 593 536 q 795 647 793 583 q 765 704 793 682 q 564 749 705 747 m 661 682 q 667 682 662 682 q 718 658 711 674 l 718 651 q 709 643 715 644 l 703 643 q 692 647 703 643 q 651 658 675 654 q 635 669 637 659 q 661 682 636 681 m 564 435 q 422 418 503 434 q 142 327 335 399 q 90 274 91 307 q 91 266 90 270 q 153 236 100 236 q 184 235 167 236 q 461 222 434 222 q 692 245 593 222 q 795 334 793 270 q 765 391 793 369 q 564 435 705 434 m 661 369 q 667 369 662 369 q 718 345 711 361 l 718 338 q 709 330 715 331 l 703 330 q 692 334 703 330 q 651 345 675 340 q 635 355 637 346 q 661 369 636 368 "},">":{"ha":608,"x_min":-4,"x_max":593,"o":"m 41 217 q 91 183 47 190 l 96 183 q 252 227 156 183 q 490 354 372 279 q 591 487 590 416 q 519 602 590 545 q 362 697 472 640 q 282 741 308 726 q 254 757 274 745 q 106 812 163 812 l 99 812 q 54 804 76 812 q -3 718 -3 780 q 60 606 -1 665 q 232 513 130 547 q 331 487 264 502 q 401 471 378 477 q 422 449 427 463 q 418 441 420 445 q 404 429 411 433 q 227 334 288 362 q 174 308 209 326 q 81 264 111 279 q 41 217 42 241 m 423 555 q 439 566 426 563 l 445 566 q 517 525 488 564 q 525 495 528 507 q 509 481 524 484 q 494 487 502 483 q 463 511 483 494 q 433 536 437 533 q 423 555 425 545 "},"?":{"ha":704,"x_min":58,"x_max":646,"o":"m 164 652 q 224 670 197 654 q 278 724 237 680 q 345 760 308 758 q 376 750 361 760 q 415 669 415 726 q 407 625 415 648 q 332 519 393 586 q 282 468 301 486 q 227 363 228 419 q 235 324 227 343 q 312 274 258 274 q 346 283 331 274 q 400 368 373 300 q 450 439 410 392 q 568 587 517 510 q 644 803 643 704 q 640 848 644 823 q 590 947 628 902 q 388 1035 513 1035 q 110 887 231 1034 q 58 768 60 821 q 72 712 58 739 q 164 652 102 652 m 552 888 l 545 888 q 536 895 543 890 q 521 913 532 901 q 513 924 515 920 q 489 953 495 944 q 483 967 483 962 l 483 975 q 491 986 484 977 q 517 981 502 989 q 560 906 559 952 q 559 902 560 905 q 559 899 559 901 q 552 888 557 891 m 297 231 q 217 209 254 231 q 149 79 149 165 q 163 14 149 47 q 176 -9 168 3 q 297 -77 221 -77 q 381 -50 342 -77 q 446 77 446 -3 q 423 160 445 122 q 297 231 380 231 m 391 53 l 385 53 q 381 54 384 53 q 368 80 368 61 q 351 125 363 111 q 330 153 331 142 l 330 159 q 336 167 334 165 q 343 168 338 167 q 374 144 355 167 q 396 65 395 117 l 396 60 q 391 53 395 54 "},"@":{"ha":844,"x_min":-217,"x_max":914,"o":"m 103 502 q 114 433 103 472 q 165 343 129 384 q 373 252 247 252 q 500 279 437 254 q 503 267 500 275 q 518 224 507 244 q 647 148 559 148 q 715 161 682 148 q 830 259 780 189 q 914 532 914 376 q 913 564 914 552 q 745 914 898 768 q 385 1084 595 1058 q 301 1089 349 1089 q 9 1006 133 1089 q -77 932 -37 975 q -217 556 -217 780 q -206 431 -217 490 q 134 -109 -149 141 q 164 -133 152 -123 q 368 -220 269 -220 q 441 -205 406 -220 q 518 -96 518 -171 q 505 -42 518 -68 q 471 0 492 -20 q 354 72 445 24 q 294 107 324 88 q 9 475 61 256 q -3 576 -3 526 q 41 758 -3 674 q 227 925 106 882 q 336 944 278 944 q 582 848 465 944 q 614 815 598 833 q 724 548 724 696 q 682 385 723 463 q 678 377 678 378 q 623 335 654 335 q 591 362 594 336 q 594 377 591 368 q 609 419 600 395 q 644 509 642 495 q 648 541 648 525 q 647 564 648 552 q 589 621 636 616 q 538 564 541 620 q 536 568 538 564 q 532 572 533 571 q 296 707 419 705 q 179 665 232 707 q 103 502 103 602 m 735 788 q 732 789 734 788 q 728 789 730 789 q 689 818 712 793 q 681 827 684 825 q 673 834 678 830 q 639 876 643 861 q 659 901 640 898 q 670 899 665 901 q 692 890 681 895 q 746 807 742 863 l 746 799 q 735 788 743 789 m 575 567 q 598 590 576 587 q 629 570 623 589 q 629 560 629 566 q 606 540 628 540 q 575 567 585 541 m 438 -106 q 434 -104 437 -106 q 430 -104 431 -104 q 392 -75 415 -99 q 384 -65 387 -68 q 376 -58 381 -62 q 342 -16 346 -33 q 362 7 343 4 q 372 5 368 7 q 395 -3 382 3 q 449 -85 445 -30 l 449 -95 q 438 -106 445 -104 m 279 472 q 293 517 279 495 q 380 562 324 562 q 496 507 441 560 q 528 486 515 487 q 503 372 505 380 q 425 365 442 365 q 362 374 392 365 q 279 472 279 400 "},"A":{"ha":955,"x_min":-24,"x_max":989,"o":"m 66 206 q 102 210 83 206 q 90 165 99 195 q 79 119 81 136 q 72 76 72 87 q 73 58 72 68 q 117 19 83 19 q 180 102 163 20 l 213 244 q 377 263 294 263 q 530 250 446 263 q 609 56 562 146 q 762 -68 667 -66 q 814 -53 791 -68 q 869 73 869 -18 q 860 176 869 100 q 902 172 880 172 q 936 178 921 172 q 989 258 989 197 q 986 282 989 270 q 818 377 970 361 q 793 465 811 407 q 776 529 781 507 q 755 598 764 571 q 591 939 686 826 q 586 945 589 941 q 442 1025 514 1025 q 378 1009 410 1025 q 245 811 290 963 q 187 568 222 731 q 148 395 163 452 q 75 385 91 388 q -23 307 -11 368 q -24 298 -23 304 q -24 293 -24 294 q -15 252 -24 273 q 66 206 9 206 m 438 799 q 469 623 460 732 q 490 420 484 449 q 491 414 490 419 q 494 407 494 410 q 393 408 460 408 q 252 404 323 408 q 262 441 256 419 q 373 791 331 693 q 411 826 388 825 q 438 799 431 825 m 939 254 q 918 266 929 255 q 887 301 901 290 l 882 304 q 874 308 876 307 q 869 313 872 309 q 864 319 865 316 q 863 327 863 323 q 886 338 865 343 q 949 273 940 320 l 949 264 q 939 254 947 255 m 559 842 q 556 844 557 842 q 552 844 553 844 q 540 849 547 845 q 505 882 534 852 q 498 888 502 884 q 463 930 467 916 q 483 954 464 951 q 494 952 488 954 q 514 944 503 949 q 570 861 566 918 l 570 853 q 559 842 567 844 "},"B":{"ha":792,"x_min":18,"x_max":789,"o":"m 315 19 q 519 71 391 20 q 688 160 633 119 q 789 331 788 237 q 765 416 788 373 q 583 544 712 513 q 586 547 585 545 q 684 715 684 625 q 661 795 684 753 q 529 901 623 860 q 267 949 407 949 q 34 860 88 949 q 18 808 19 836 q 24 777 18 793 q 99 707 42 728 q 104 705 100 707 q 110 704 107 705 q 132 528 117 654 q 126 526 130 526 q 72 473 72 506 q 134 441 76 444 l 140 441 q 146 293 145 345 l 146 222 q 119 156 121 191 q 151 79 119 113 q 315 19 206 19 m 632 734 q 628 734 631 734 q 625 735 627 735 q 589 769 609 739 q 537 822 571 800 q 532 826 536 823 q 498 859 500 844 q 521 878 499 876 q 572 848 541 878 q 617 803 595 826 q 643 750 642 772 l 643 743 q 632 734 640 735 m 743 358 l 736 358 q 722 365 731 359 q 697 399 712 374 q 680 423 686 415 q 648 448 671 433 q 640 452 646 449 q 609 481 612 468 q 628 500 610 498 q 655 494 639 500 q 728 426 684 476 q 754 373 753 395 l 754 366 q 743 358 751 359 m 342 453 l 343 453 q 407 465 397 463 q 419 461 411 464 q 441 454 433 457 q 503 387 503 431 q 479 334 502 358 q 334 283 435 293 q 338 368 335 312 q 342 453 340 425 m 336 697 q 401 681 377 692 q 406 678 403 680 q 452 620 452 654 q 345 541 449 560 q 336 697 345 620 "},"C":{"ha":848,"x_min":11,"x_max":834,"o":"m 533 544 l 593 544 q 785 613 734 544 q 811 699 810 647 q 764 833 811 765 q 722 878 746 856 q 480 962 621 962 q 326 933 407 962 q 151 818 228 897 q 11 476 11 674 q 16 400 11 435 q 155 123 42 241 q 521 -30 302 -30 q 722 11 625 -30 q 834 137 833 57 q 727 220 831 216 q 689 217 713 220 l 582 210 q 549 212 566 210 q 330 343 376 222 q 317 397 317 374 q 533 544 319 541 m 735 700 l 728 700 q 692 743 711 705 q 640 808 673 783 q 636 811 639 810 q 600 852 604 834 q 621 875 601 872 q 675 838 644 873 q 719 784 704 804 q 746 719 745 745 l 746 711 q 735 700 743 701 m 736 114 q 696 144 732 140 q 673 157 675 146 l 673 163 q 674 167 673 164 q 705 174 681 180 q 764 119 762 161 q 742 75 761 79 q 731 81 732 75 l 731 91 q 736 114 736 106 "},"D":{"ha":907,"x_min":20,"x_max":887,"o":"m 149 -53 q 236 -49 193 -53 q 311 -95 266 -94 q 330 -92 320 -95 q 396 -30 376 -80 q 397 -24 396 -28 q 399 -20 397 -22 q 465 1 420 -15 q 735 179 625 61 q 766 218 751 197 q 886 563 886 374 q 781 860 886 734 q 426 1053 655 1009 q 307 1065 369 1065 q 243 1101 282 1100 q 225 1099 235 1101 q 170 1039 186 1086 q 125 1015 146 1029 q 20 826 20 947 q 31 762 20 795 q 37 747 33 755 q 186 621 77 647 q 212 167 212 317 l 212 141 q 118 83 159 118 q 72 9 73 45 q 149 -53 73 -50 m 766 703 l 760 703 q 724 746 742 708 q 674 811 707 785 q 666 817 671 812 q 633 854 637 836 q 637 872 633 867 q 663 876 642 879 q 707 842 682 871 q 751 787 736 807 q 755 781 751 787 q 759 775 758 776 q 762 770 760 774 q 766 764 765 765 q 768 758 766 762 q 772 751 770 754 q 774 745 773 749 q 777 737 776 741 q 777 730 777 734 q 777 722 777 726 l 777 713 q 766 703 774 704 m 389 600 q 472 576 435 593 q 499 562 486 571 q 574 430 574 511 q 572 408 574 418 q 416 222 555 293 q 412 220 414 221 q 389 600 408 401 "},"E":{"ha":781,"x_min":33,"x_max":761,"o":"m 122 844 q 144 616 130 768 q 111 568 113 600 q 113 560 111 564 q 151 530 118 530 q 155 388 155 458 l 155 313 q 159 259 155 278 q 132 247 151 255 q 104 235 114 239 q 42 146 42 205 q 80 77 43 99 q 117 72 92 72 l 157 72 q 307 58 216 72 q 538 34 483 34 q 562 34 551 34 q 716 84 669 37 q 761 201 760 132 q 758 233 761 217 q 536 370 736 370 q 320 328 434 370 q 326 426 321 361 q 330 524 328 491 q 568 633 567 524 q 556 673 568 655 q 429 722 522 722 q 332 705 382 722 q 326 831 330 788 q 511 819 437 819 q 586 822 560 819 q 734 935 732 840 q 718 981 734 960 q 515 1044 669 1043 q 293 1012 414 1044 q 199 1099 262 1097 q 176 1096 187 1099 q 111 974 111 1078 l 111 959 l 109 958 q 107 958 109 958 q 103 956 106 958 q 33 892 33 935 q 122 844 34 845 m 536 996 q 620 977 559 996 q 670 936 669 960 q 650 925 669 926 q 620 937 639 926 q 559 956 586 956 l 557 956 q 509 979 513 956 q 536 996 511 994 m 684 208 q 648 225 670 209 q 587 252 617 251 q 570 254 576 252 q 538 286 538 256 q 540 293 538 289 q 567 312 545 312 q 595 305 571 312 q 648 283 620 297 q 699 224 697 259 q 684 208 697 210 m 473 669 l 476 669 q 514 644 509 661 l 514 637 q 507 629 513 631 l 503 629 q 490 636 499 629 q 480 642 483 642 q 473 643 479 642 q 467 643 469 643 q 457 650 458 644 q 456 654 456 652 q 473 669 457 666 "},"F":{"ha":860,"x_min":8,"x_max":873,"o":"m 136 572 q 104 560 126 568 q 73 548 84 552 q 69 547 72 548 q 20 495 20 528 q 22 487 20 492 q 84 458 30 458 q 119 457 95 458 q 153 456 142 456 q 174 178 174 302 q 174 146 174 168 q 172 115 172 125 q 179 71 172 92 q 270 1 199 1 q 365 126 357 3 q 365 137 365 130 q 380 411 380 374 l 380 446 l 407 446 q 623 468 529 446 q 633 471 627 469 q 728 559 728 495 q 643 636 727 609 q 502 655 579 655 q 357 640 431 655 q 351 666 355 652 q 225 788 323 788 q 199 785 213 788 q 125 671 125 770 q 136 572 125 656 m 604 1077 q 408 1054 517 1077 q 104 968 328 1038 q 102 967 103 968 q 14 911 30 947 q 8 887 8 901 q 11 871 8 879 q 58 830 22 838 l 96 826 l 149 826 q 315 817 216 826 q 598 796 537 796 q 616 796 606 796 q 861 887 810 799 q 873 937 872 906 q 854 1000 873 971 q 604 1077 800 1076 m 617 991 l 621 1000 q 654 1015 632 1013 q 692 1008 661 1015 q 792 977 765 990 q 825 939 823 958 q 800 925 823 926 q 761 940 785 926 q 682 964 719 964 l 674 964 q 617 991 618 964 m 591 591 q 598 590 594 591 q 648 567 643 583 l 648 560 q 639 552 646 553 l 633 552 q 614 559 628 552 q 601 564 605 564 q 591 566 598 564 q 581 567 583 567 q 567 578 568 568 q 591 591 568 589 "},"G":{"ha":982,"x_min":20,"x_max":948,"o":"m 548 374 q 553 339 549 357 q 633 250 571 274 q 647 245 637 248 q 662 241 656 243 q 704 193 704 227 q 697 165 704 179 q 567 117 670 117 q 499 126 533 117 q 354 235 403 153 q 317 359 319 293 q 391 529 319 460 q 494 590 430 566 q 643 628 537 606 q 838 697 779 654 q 920 837 918 754 q 878 949 918 894 q 814 1008 853 981 q 530 1088 694 1088 q 370 1061 445 1088 q 167 920 254 1019 q 20 507 20 751 q 56 283 22 391 q 293 -33 122 76 q 548 -106 411 -104 q 818 -9 707 -104 q 947 262 947 103 q 918 392 947 330 q 769 525 869 498 q 716 532 747 532 q 624 506 666 532 q 548 374 548 461 m 810 788 l 802 788 q 787 796 793 789 q 758 841 774 808 q 738 879 746 868 q 704 913 723 898 q 699 917 703 914 q 658 963 663 941 q 659 967 658 964 q 682 990 662 990 q 693 987 684 990 q 743 947 713 978 q 793 884 776 909 q 822 810 822 848 l 822 800 q 810 788 821 789 m 795 408 q 852 359 831 392 q 856 345 854 353 q 836 326 854 327 q 810 343 823 326 q 784 373 791 370 q 773 378 780 376 q 755 396 755 384 q 783 411 757 410 q 795 408 785 411 "},"H":{"ha":1036,"x_min":19,"x_max":983,"o":"m 19 438 q 28 411 20 425 q 114 377 54 377 q 167 148 149 225 q 205 45 183 75 q 290 -4 241 -3 q 396 134 370 -1 q 423 340 415 270 q 621 305 548 316 q 620 176 620 263 l 620 122 q 637 4 620 45 q 730 -62 669 -61 q 773 -49 750 -62 q 844 71 817 -22 q 890 289 871 172 q 921 297 905 292 q 977 368 977 323 q 974 385 977 376 q 921 445 963 426 q 916 448 917 446 q 959 696 940 613 q 983 860 983 803 q 967 955 983 911 q 833 1054 928 1054 q 807 1051 819 1054 q 696 966 738 1036 q 647 780 662 905 q 625 475 632 640 q 533 484 595 477 q 442 495 472 491 q 464 696 449 553 q 473 818 473 788 q 453 945 473 888 q 423 1004 442 975 q 255 1096 358 1096 q 176 1078 216 1096 q 66 964 99 1043 q 39 819 39 903 q 45 736 39 792 q 84 505 54 648 q 64 498 75 503 q 19 438 19 479 m 380 842 l 372 842 q 340 888 351 848 q 302 966 331 940 q 298 968 301 966 q 262 1010 266 994 q 282 1035 262 1032 q 336 998 307 1035 q 391 861 389 928 l 391 853 q 380 842 387 844 m 913 811 l 906 811 q 876 867 886 817 q 869 895 872 887 q 849 930 864 913 q 842 937 846 933 q 812 977 817 964 q 833 1000 814 997 q 861 990 848 1000 q 865 987 863 989 q 924 845 924 941 l 924 830 q 922 826 924 830 q 922 822 922 823 q 913 811 921 814 "},"I":{"ha":460,"x_min":34,"x_max":411,"o":"m 365 373 q 403 696 389 586 q 411 810 411 768 q 357 972 411 910 q 222 1039 301 1038 q 149 1023 184 1039 q 34 800 35 967 q 65 562 34 711 q 104 393 77 506 q 144 225 132 282 q 151 197 148 209 q 252 95 179 95 q 330 157 308 96 q 365 373 347 220 m 345 812 q 336 803 343 804 l 330 803 q 308 825 313 811 q 305 838 307 830 q 281 906 293 892 q 273 913 278 909 q 248 945 250 933 l 248 952 q 270 964 250 963 q 312 939 290 963 q 345 830 343 891 l 345 812 "},"J":{"ha":734,"x_min":-23,"x_max":678,"o":"m 351 412 q 331 227 351 311 q 316 182 321 191 q 221 118 286 119 q 163 132 190 118 q 77 267 95 167 q 76 274 77 270 q 24 345 64 345 q -22 281 -20 343 q -19 247 -22 270 q 16 136 -8 184 q 172 0 68 41 q 281 -19 225 -19 q 420 11 351 -19 q 605 183 538 64 q 613 197 609 190 q 678 526 678 320 q 674 663 678 571 q 671 765 671 731 q 670 777 671 770 q 647 971 669 913 q 636 994 643 982 q 491 1097 585 1097 q 449 1090 471 1097 q 347 990 384 1066 q 321 842 321 930 q 331 681 321 777 q 351 412 351 471 m 589 857 l 581 857 q 553 902 563 863 q 525 977 541 955 q 518 983 522 979 q 488 1023 492 1010 q 490 1025 488 1023 q 510 1046 491 1046 q 536 1036 524 1046 q 600 891 600 990 l 600 876 q 600 872 600 875 q 598 868 598 869 q 589 857 597 859 "},"K":{"ha":960,"x_min":33,"x_max":967,"o":"m 967 130 q 906 269 966 195 q 712 431 833 354 q 583 502 671 457 q 488 552 519 534 q 472 574 473 560 q 483 598 473 586 q 681 755 544 674 q 853 860 827 842 q 917 947 916 903 q 909 977 917 962 q 844 1010 887 1010 l 838 1010 q 753 985 803 1010 q 464 750 559 887 q 467 817 467 793 q 448 945 467 892 q 414 1008 435 978 q 248 1096 349 1096 q 170 1078 209 1096 q 60 964 92 1043 q 34 823 34 905 q 39 736 34 795 q 118 332 53 601 q 161 148 148 209 q 197 45 178 73 q 283 -4 232 -3 q 389 134 365 -3 q 419 361 401 218 q 425 355 420 359 q 430 349 429 351 q 610 160 511 258 q 635 134 627 144 q 822 22 735 37 q 850 20 831 22 q 902 30 878 22 q 967 130 967 57 m 381 823 l 373 823 q 343 879 353 829 q 338 909 340 899 q 316 943 331 925 q 311 951 315 945 q 281 989 283 977 q 301 1012 282 1009 q 330 1002 316 1012 q 334 1000 331 1002 q 392 857 392 954 l 392 844 q 391 838 392 842 q 391 834 391 836 q 381 823 389 826 m 841 922 q 827 925 834 922 q 796 960 802 935 q 819 985 798 982 q 823 985 821 985 q 827 983 826 983 q 871 947 869 974 q 841 922 867 926 m 880 136 l 873 136 q 837 174 857 141 q 826 190 830 186 q 808 212 815 205 q 783 248 787 232 q 800 273 783 270 q 856 236 827 271 q 891 156 891 194 l 891 148 q 880 136 888 138 "},"L":{"ha":854,"x_min":47,"x_max":905,"o":"m 739 317 q 675 309 707 317 q 648 301 662 307 q 477 189 583 277 q 415 138 435 155 q 401 134 411 136 q 395 144 396 136 q 396 157 395 152 q 471 696 448 355 q 475 791 475 784 q 450 948 475 883 q 427 994 441 971 q 267 1096 366 1096 q 212 1086 239 1096 q 88 963 130 1058 q 85 958 87 960 q 52 736 57 888 q 49 593 49 643 q 85 210 49 372 q 172 26 114 87 q 407 -58 255 -57 q 446 -57 426 -58 q 703 0 534 -52 q 831 56 789 27 q 905 178 903 107 q 878 256 903 221 q 739 317 830 317 m 384 823 l 377 823 q 346 879 357 829 q 340 909 343 899 q 320 943 335 925 q 313 951 317 945 q 283 989 286 977 q 304 1012 285 1009 q 332 1002 319 1012 q 336 1000 334 1002 q 395 857 395 954 l 395 844 q 393 838 395 842 q 393 834 393 836 q 384 823 392 826 m 815 153 q 812 154 814 153 q 808 155 810 155 q 795 161 803 156 q 791 164 793 161 q 742 225 747 201 l 742 235 q 770 247 746 250 q 787 241 779 245 q 826 172 826 220 l 826 164 q 815 153 823 155 "},"M":{"ha":1196,"x_min":34,"x_max":1162,"o":"m 783 597 q 803 256 791 370 q 823 149 811 190 q 834 121 829 134 q 982 20 882 20 q 1027 27 1005 22 q 1143 156 1108 53 q 1161 301 1161 209 l 1161 332 q 1088 845 1152 608 q 1081 865 1085 854 q 899 1044 1029 1044 q 789 1006 838 1044 q 779 1000 784 1004 q 682 823 722 949 l 609 589 q 581 563 597 564 q 552 589 564 564 l 467 859 q 403 1010 431 968 q 281 1086 351 1085 q 138 956 190 1085 q 126 922 133 940 q 61 574 88 810 q 50 477 54 510 q 35 312 35 374 q 91 119 35 193 q 222 50 142 52 q 241 52 231 50 q 377 171 335 62 q 396 290 395 222 q 392 358 396 290 q 353 633 384 449 q 368 665 349 663 q 384 648 378 663 l 460 487 q 480 445 467 473 q 500 401 494 415 q 598 323 541 324 q 617 324 608 323 q 688 423 671 334 q 754 606 707 522 q 769 620 760 618 q 783 597 780 618 m 1005 876 l 1005 868 q 996 859 1004 860 l 987 859 q 974 865 983 860 q 907 929 926 899 q 901 945 902 940 q 928 971 902 968 q 967 956 948 970 q 1005 876 1004 928 m 372 933 l 372 925 q 362 916 370 917 l 354 916 q 340 922 350 917 q 274 986 293 956 q 267 1002 269 996 q 294 1028 269 1025 q 334 1013 315 1027 q 372 933 370 985 "},"N":{"ha":916,"x_min":47,"x_max":864,"o":"m 346 336 q 357 331 351 335 q 359 327 358 328 q 530 71 427 180 q 656 0 597 1 q 700 8 680 0 q 796 175 765 35 q 864 674 864 483 q 846 875 864 779 q 795 1000 830 960 q 690 1046 754 1044 q 639 1036 663 1046 q 608 1020 623 1029 q 521 802 521 958 l 521 795 q 538 609 521 720 q 572 365 570 403 q 572 346 572 350 q 571 339 572 343 q 547 330 562 324 q 522 363 530 336 q 437 757 471 574 q 378 945 411 888 q 374 951 377 948 q 247 1039 321 1039 q 106 898 153 1038 q 88 834 96 868 q 57 471 61 716 q 54 349 56 389 q 53 259 53 319 q 100 46 53 115 q 213 -23 149 -23 q 240 -20 227 -23 q 334 81 305 -4 q 343 164 343 118 q 338 235 343 187 q 334 304 334 281 q 346 336 334 334 m 332 872 l 332 864 q 323 853 331 854 l 313 853 q 301 861 313 853 q 236 930 258 895 q 229 948 231 940 l 229 959 q 254 975 231 974 q 289 964 273 975 q 332 872 328 937 m 769 903 l 769 895 q 760 886 766 888 l 753 886 q 739 892 746 888 q 677 948 697 920 q 670 964 671 956 l 670 972 q 696 986 671 985 q 728 977 712 986 q 769 903 766 954 "},"O":{"ha":818,"x_min":16,"x_max":780,"o":"m 387 642 q 384 681 387 661 q 297 845 370 798 q 369 910 334 883 q 467 945 419 945 q 621 769 582 944 q 636 621 636 693 q 595 395 636 500 q 479 283 555 285 q 464 285 472 283 q 396 335 418 294 q 370 444 372 374 q 374 499 370 467 q 387 642 387 629 m 311 689 l 311 681 q 300 671 309 673 l 293 671 q 279 678 289 673 q 213 742 232 712 q 206 758 208 751 q 233 784 208 781 q 273 769 254 783 q 311 689 309 741 m 572 1027 q 594 1017 582 1025 q 620 967 620 997 q 618 963 618 964 q 613 956 617 958 l 606 956 q 559 998 574 974 q 555 1009 555 1005 l 555 1016 q 572 1027 556 1025 m 220 869 q 212 869 217 869 q 203 868 206 868 q 175 863 190 867 q 39 667 80 833 q 16 486 18 574 q 24 389 16 438 q 157 148 53 239 q 369 68 248 69 q 415 71 399 68 q 502 96 460 77 q 709 313 635 157 q 779 617 779 450 q 774 697 779 656 q 663 1000 754 890 q 481 1093 587 1092 q 373 1069 423 1093 q 220 869 263 1015 "},"P":{"ha":800,"x_min":14,"x_max":777,"o":"m 149 343 l 193 343 l 193 266 q 191 247 193 260 q 191 229 191 235 q 203 156 191 191 q 205 153 203 155 q 285 91 229 91 q 361 149 328 96 q 378 248 376 183 q 380 304 378 267 q 382 359 382 340 q 385 361 384 359 q 389 361 388 361 q 513 400 454 374 q 757 642 697 481 q 777 758 777 699 q 754 876 777 822 q 745 897 750 886 q 391 1101 654 1062 q 289 1109 340 1109 q 187 1097 239 1109 q 129 1074 157 1089 q 14 895 14 1013 q 37 811 14 850 q 164 730 80 741 q 187 487 183 537 q 80 414 100 472 q 77 395 77 401 q 79 385 77 391 q 149 343 85 343 m 682 856 l 682 848 q 671 837 680 838 l 663 837 q 650 845 662 837 q 583 909 602 879 q 576 925 578 918 q 604 949 578 947 q 643 936 624 949 q 682 856 681 906 m 388 728 q 418 722 403 726 q 513 614 513 692 q 506 578 513 595 q 389 495 483 511 q 391 600 391 530 q 388 728 391 684 "},"Q":{"ha":836,"x_min":15,"x_max":837,"o":"m 385 642 q 382 681 385 661 q 296 845 369 798 q 368 910 332 883 q 465 945 418 945 q 620 769 581 944 q 635 620 635 693 q 617 465 635 538 q 605 483 606 480 q 510 544 562 544 q 480 538 494 544 q 437 461 437 518 q 477 358 438 425 q 525 297 507 317 q 477 283 510 285 q 463 285 471 283 q 395 335 416 294 q 369 444 370 374 q 373 499 369 467 q 385 642 385 629 m 309 689 l 309 681 q 298 671 308 673 l 292 671 q 278 678 288 673 q 212 742 231 712 q 205 758 206 751 q 232 784 206 781 q 271 769 252 783 q 309 689 308 741 m 571 1027 q 593 1017 581 1025 q 618 967 618 997 q 617 963 617 964 q 612 956 616 958 l 605 956 q 557 998 572 974 q 553 1009 553 1005 l 553 1016 q 571 1027 555 1025 m 518 503 q 538 495 528 502 q 564 445 564 476 l 564 439 q 557 433 562 435 l 553 433 q 505 476 524 449 q 499 487 499 484 l 499 494 q 518 503 500 502 m 836 100 q 806 175 836 127 q 712 321 745 273 q 777 617 777 454 q 773 697 777 656 q 662 1000 753 890 q 480 1093 586 1092 q 372 1069 422 1093 q 218 869 262 1015 q 210 869 216 869 q 201 868 205 868 q 174 863 189 867 q 38 667 79 833 q 15 486 15 574 q 23 389 15 438 q 156 148 52 239 q 368 68 247 69 q 624 187 503 69 q 692 109 675 129 q 708 87 692 107 q 783 41 742 41 q 802 45 792 41 q 836 100 836 58 "},"R":{"ha":842,"x_min":19,"x_max":829,"o":"m 132 156 q 141 85 132 113 q 145 76 144 81 q 220 22 171 22 q 252 28 236 23 q 317 179 308 50 q 338 351 324 258 q 354 354 343 353 q 370 357 365 357 q 412 332 370 357 q 423 324 418 328 q 521 212 464 296 q 623 99 578 127 q 715 69 666 71 q 770 81 745 69 q 827 178 827 111 q 787 283 827 233 q 650 391 738 345 q 568 425 635 397 q 608 448 587 435 q 762 642 718 521 q 784 758 784 699 q 760 876 783 822 q 757 884 758 879 q 396 1101 671 1058 q 294 1109 346 1109 q 193 1097 244 1109 q 137 1076 164 1089 q 19 898 19 1015 q 39 818 20 856 q 159 731 79 745 q 152 475 159 617 q 142 471 146 472 q 83 396 83 439 q 85 380 84 388 q 142 343 98 343 q 132 156 132 179 m 689 856 l 689 848 q 678 837 686 840 l 671 837 q 656 845 666 840 q 590 909 610 879 q 583 925 585 920 q 612 949 585 948 q 650 936 632 949 q 689 856 688 907 m 739 222 l 739 214 q 728 205 736 206 l 720 205 q 707 212 716 206 q 640 275 661 245 q 633 292 635 285 q 661 316 635 315 q 700 302 681 316 q 739 222 736 274 m 381 731 q 433 719 407 727 q 518 614 518 686 q 503 557 518 583 q 358 491 464 495 q 381 731 377 623 "},"S":{"ha":930,"x_min":1,"x_max":906,"o":"m 583 766 q 648 727 610 766 q 658 718 651 724 q 770 650 724 650 q 811 659 791 650 q 818 663 814 661 q 882 783 882 701 q 810 941 882 860 q 798 955 804 948 q 505 1101 667 1101 q 296 1021 384 1101 q 191 783 191 926 q 290 532 193 640 q 358 468 309 511 q 465 346 439 397 q 476 309 476 321 q 473 293 476 302 q 426 264 463 264 q 365 292 389 264 q 320 365 349 312 q 296 408 305 393 q 170 487 247 487 q 117 477 142 487 q 12 361 42 450 q 1 288 1 328 q 79 81 1 190 q 152 -1 111 38 q 502 -163 305 -149 q 517 -163 506 -163 q 533 -164 528 -164 q 802 -71 696 -163 q 810 -62 806 -68 q 906 148 906 27 q 895 218 906 182 q 854 305 883 263 q 718 444 818 359 q 671 483 686 469 q 537 677 564 578 q 533 711 533 693 q 583 766 534 765 m 770 803 q 750 811 765 803 q 684 884 704 849 q 677 903 678 895 q 705 932 678 929 q 726 928 716 932 q 736 920 731 925 q 783 823 777 887 l 783 815 q 770 803 780 804 m 815 199 l 815 190 q 804 178 812 179 q 784 187 798 178 q 716 259 736 227 q 709 279 712 270 q 736 307 711 304 q 776 292 757 307 q 815 199 814 260 m 248 292 q 228 300 243 292 q 161 373 182 338 q 155 392 156 384 q 183 420 155 418 q 203 416 194 420 q 214 408 208 414 q 259 312 255 376 l 259 304 q 248 292 258 293 "},"T":{"ha":956,"x_min":-27,"x_max":987,"o":"m 536 586 q 517 597 526 587 q 500 686 503 620 q 500 716 500 707 l 499 727 q 500 738 499 738 q 502 746 500 741 q 526 760 509 765 q 548 747 537 757 q 570 670 560 732 q 572 643 572 654 q 536 586 570 591 m 91 859 l 132 859 q 362 845 235 859 q 350 669 362 776 q 327 381 327 449 q 377 138 327 212 q 380 133 378 137 q 490 72 423 72 q 600 132 553 73 q 667 423 666 217 q 604 823 666 579 q 680 822 629 822 q 700 822 689 822 q 928 867 863 823 q 986 964 985 906 q 834 1095 985 1059 q 655 1111 755 1111 q 545 1105 602 1111 q 69 1000 380 1089 q 56 996 62 998 q -26 920 -26 971 q -23 898 -26 909 q 91 859 -8 859 m 921 958 l 921 948 q 910 939 920 941 l 903 939 q 888 945 898 940 q 822 1009 842 979 q 815 1027 818 1020 q 844 1051 817 1048 q 882 1038 864 1051 q 921 958 920 1008 "},"U":{"ha":903,"x_min":34,"x_max":856,"o":"m 841 661 q 844 694 841 675 q 856 769 856 762 q 852 798 856 779 q 849 825 849 815 q 849 836 849 827 q 850 845 850 841 q 849 865 850 854 q 779 956 842 956 q 768 954 777 956 q 742 940 754 949 q 699 761 699 906 q 700 654 699 726 q 703 548 703 583 q 597 218 703 308 q 517 189 559 190 q 463 203 488 189 q 357 431 359 267 q 370 557 357 483 q 396 742 396 690 q 370 864 396 807 q 222 966 321 966 q 156 948 190 966 q 69 844 99 917 q 34 536 34 755 q 45 393 34 452 q 66 307 53 349 q 411 39 155 39 q 488 47 450 39 q 777 292 685 91 q 833 499 806 351 q 844 590 844 560 q 842 627 844 602 q 841 661 841 650 m 206 876 q 231 888 212 883 l 241 887 l 254 884 l 283 864 l 304 831 l 312 795 l 312 792 l 311 789 l 311 787 q 301 776 309 780 l 293 776 l 289 777 l 281 784 l 255 802 l 232 823 l 213 848 l 208 859 l 206 864 l 206 876 m 746 873 q 772 901 749 897 q 781 899 776 901 q 806 865 806 890 q 804 857 806 863 q 777 836 798 836 q 769 837 774 836 q 746 873 746 844 "},"V":{"ha":860,"x_min":28,"x_max":841,"o":"m 783 1078 q 707 994 732 1076 q 635 637 678 897 q 525 225 589 368 q 505 201 517 203 q 484 217 494 202 q 426 505 445 321 q 396 774 406 722 q 327 949 376 890 q 321 956 324 952 q 193 1020 266 1020 q 159 1016 178 1020 q 140 1009 149 1013 q 30 770 30 963 l 30 755 q 146 300 38 526 q 340 62 227 132 q 477 23 406 24 q 586 58 544 24 q 650 151 621 88 q 700 275 677 208 q 793 718 747 418 q 831 941 818 868 q 841 1000 840 979 q 837 1025 840 1013 q 783 1078 825 1078 m 292 758 l 285 758 q 251 800 266 764 q 210 868 237 842 q 205 872 208 869 q 172 913 176 895 q 197 936 174 930 q 232 920 208 936 q 281 857 258 898 q 304 783 301 817 q 292 758 304 761 m 764 1015 q 769 1013 766 1015 q 791 991 791 1009 q 762 963 789 964 q 741 986 746 968 q 764 1015 742 1012 "},"W":{"ha":1336,"x_min":30,"x_max":1305,"o":"m 1135 966 q 1116 964 1126 966 q 990 867 1039 954 q 981 849 986 859 q 937 686 963 808 q 926 636 933 665 q 875 399 880 431 q 873 395 875 397 q 856 377 868 370 q 849 384 850 378 q 846 393 846 388 q 810 526 838 435 q 793 570 799 555 q 688 655 757 655 q 639 646 666 655 q 538 557 585 624 q 468 435 528 543 q 454 422 461 423 q 441 445 442 425 q 439 463 439 452 q 419 785 431 703 q 214 1084 377 1046 q 180 1088 197 1088 q 60 1015 107 1086 q 31 901 31 968 q 62 709 31 852 q 92 510 79 633 q 136 195 119 274 q 313 4 176 7 q 369 12 339 4 q 498 110 441 34 q 587 274 526 148 q 651 399 608 315 q 697 488 682 458 q 704 496 703 495 l 707 496 q 712 491 711 494 q 713 486 713 491 q 728 345 722 439 q 734 267 731 293 q 803 41 749 122 q 935 -47 864 -46 q 1009 -22 977 -46 q 1084 85 1042 4 q 1251 511 1141 208 q 1261 541 1253 518 q 1305 738 1305 659 q 1282 856 1303 802 q 1135 966 1237 966 m 300 909 l 300 901 q 290 890 297 892 l 282 890 q 269 898 277 891 q 201 962 221 932 q 194 978 197 971 q 222 1002 197 1000 q 262 989 243 1002 q 300 909 298 959 m 1219 798 l 1219 789 q 1210 779 1217 781 l 1202 779 q 1188 787 1196 781 q 1120 850 1141 821 q 1114 867 1116 860 q 1142 891 1115 890 q 1181 878 1162 891 q 1219 798 1218 849 "},"X":{"ha":1032,"x_min":11,"x_max":1009,"o":"m 892 977 q 815 958 853 977 q 802 949 810 954 q 689 837 755 922 q 526 635 581 701 q 416 798 479 703 q 412 804 415 799 q 407 811 410 808 q 283 959 338 920 q 172 997 229 997 q 100 978 133 997 q 35 850 35 939 q 43 795 35 825 q 49 776 45 787 q 140 632 66 727 q 328 395 324 399 q 58 104 187 232 q 54 100 57 103 q 11 27 11 58 q 19 -3 11 9 q 41 -23 27 -16 q 72 -30 54 -30 q 148 0 95 -30 q 475 218 332 110 q 719 -43 602 72 q 728 -52 722 -45 q 738 -61 734 -57 q 859 -121 800 -121 q 892 -115 876 -121 q 951 -27 951 -95 q 916 73 951 11 q 911 81 913 79 q 694 406 841 203 q 947 704 836 541 q 955 716 949 708 q 960 723 959 720 q 1008 854 1008 796 q 997 910 1008 884 q 892 977 968 977 m 290 838 l 290 830 q 279 821 289 823 l 273 821 q 258 827 267 822 q 191 891 212 861 q 184 909 187 902 q 213 933 186 930 q 251 920 233 933 q 290 838 289 890 m 947 829 l 947 821 q 936 811 945 812 l 929 811 q 916 818 925 812 q 849 882 868 852 q 842 899 844 891 q 869 924 844 921 q 909 910 890 924 q 947 829 945 880 "},"Y":{"ha":975,"x_min":4,"x_max":941,"o":"m 4 873 q 38 769 4 822 q 53 749 43 760 q 178 637 84 708 q 414 422 321 529 q 453 378 439 392 q 427 -85 437 225 q 481 -180 429 -172 q 540 -130 510 -179 q 685 109 633 19 q 933 766 895 477 q 940 849 940 810 q 916 974 940 918 q 899 1002 909 987 q 770 1080 849 1080 q 594 928 667 1078 q 505 674 540 811 q 380 846 449 758 q 370 857 374 852 q 222 987 289 958 q 142 1004 183 1004 q 72 987 106 1004 q 4 873 4 951 m 240 831 q 227 836 240 831 q 146 886 175 860 q 132 910 132 901 q 160 930 134 928 q 193 924 175 930 q 251 853 235 902 q 254 845 254 849 q 240 831 252 834 m 856 920 q 837 924 854 920 q 743 967 776 944 q 727 987 728 978 q 760 1006 728 1005 q 802 998 780 1006 q 868 937 850 977 q 871 930 869 935 q 856 920 869 922 "},"Z":{"ha":926,"x_min":30,"x_max":911,"o":"m 221 681 q 419 718 294 681 q 490 738 467 731 q 510 741 500 741 q 534 719 533 739 q 522 700 534 713 q 146 339 308 506 q 79 213 81 274 q 87 161 80 186 q 288 35 119 71 q 481 16 380 16 q 760 47 617 16 q 872 96 833 61 q 911 190 910 133 q 888 277 910 232 q 883 288 886 281 q 728 373 827 373 q 637 357 693 373 q 509 328 544 328 q 476 353 479 328 q 499 389 477 366 q 743 640 636 538 q 761 658 749 646 q 784 681 776 673 q 864 845 864 762 q 745 1002 863 943 q 473 1061 628 1061 q 311 1047 400 1061 q 80 945 151 1020 q 31 829 31 894 q 47 760 31 791 q 221 681 92 681 m 774 827 q 770 829 774 827 q 766 829 768 829 q 754 836 765 830 q 719 868 742 845 q 713 873 718 869 q 680 917 684 901 q 684 935 680 929 q 709 939 688 943 q 732 930 720 936 q 787 848 783 903 q 785 844 785 846 q 785 838 785 841 q 774 827 783 830 m 817 212 q 812 212 815 212 q 808 213 810 213 q 796 220 806 213 q 761 251 784 229 q 755 258 760 254 q 720 300 724 283 q 726 317 720 312 q 751 323 730 326 q 773 313 762 320 q 827 231 825 286 q 827 227 827 229 q 826 222 826 224 q 817 212 825 213 "},"[":{"ha":606,"x_min":37,"x_max":547,"o":"m 392 4 q 285 -12 345 4 q 281 -14 282 -14 q 281 3 281 -9 q 282 18 282 12 q 286 137 283 71 q 301 571 301 506 q 289 830 301 719 q 387 822 351 822 q 545 932 544 823 q 544 951 545 941 q 393 1039 530 1039 q 254 1019 362 1039 q 247 1036 251 1027 q 161 1099 216 1099 q 132 1095 146 1099 q 71 975 71 1073 q 72 947 71 958 q 38 894 39 926 q 39 882 38 888 q 84 848 47 848 q 123 251 123 503 q 117 35 123 156 q 114 -9 114 8 q 126 -75 114 -50 q 113 -81 122 -77 q 102 -87 104 -85 q 57 -152 57 -110 q 118 -198 58 -197 l 392 -225 q 515 -190 480 -225 q 545 -110 545 -160 q 392 4 538 -7 m 358 996 q 441 977 381 996 q 490 936 488 960 q 471 925 488 926 q 442 937 463 926 q 380 956 414 955 q 330 978 331 956 q 358 996 331 994 m 476 -141 q 442 -122 467 -141 q 381 -95 410 -95 q 369 -94 376 -95 q 331 -61 331 -92 q 359 -37 334 -41 q 442 -64 381 -37 q 491 -125 490 -87 q 476 -141 488 -137 "},"\\":{"ha":581,"x_min":-31,"x_max":614,"o":"m -31 971 q -30 954 -30 963 q 22 818 -26 903 q 62 745 39 785 q 426 98 316 277 q 488 22 457 46 q 541 4 515 5 q 562 7 551 4 q 614 88 614 19 q 591 170 612 121 q 453 473 540 293 q 240 918 275 838 q 164 1046 202 1008 q 72 1088 119 1086 q 23 1076 46 1088 q -31 971 -31 1044 m 75 1032 q 84 1031 79 1032 q 157 975 136 1025 q 161 964 160 968 q 149 941 160 944 q 142 940 144 940 q 119 966 132 940 q 115 974 117 971 q 75 998 103 993 q 53 1015 54 1005 q 75 1032 54 1029 "},"]":{"ha":608,"x_min":61,"x_max":570,"o":"m 217 869 q 324 886 264 869 q 327 887 324 887 q 326 872 327 883 q 326 856 326 861 q 321 750 324 808 q 307 311 307 372 q 320 43 307 159 q 222 52 256 52 q 61 -61 64 50 q 65 -88 61 -75 q 214 -165 85 -165 q 335 -149 270 -165 q 343 -146 338 -148 q 353 -142 350 -144 q 359 -160 355 -151 q 448 -225 391 -225 q 471 -222 458 -225 q 536 -102 536 -205 q 534 -73 536 -84 q 570 -22 568 -53 q 568 -9 570 -16 q 524 26 560 26 q 484 623 484 370 q 491 838 484 718 q 495 883 494 865 q 481 948 494 924 q 495 955 486 951 q 507 962 503 959 q 551 1027 551 983 q 488 1073 548 1070 l 216 1099 q 61 986 64 1097 q 64 959 61 972 q 217 869 83 869 m 505 1019 q 463 989 500 993 q 454 990 458 989 q 425 1025 425 996 q 426 1031 425 1027 q 453 1051 431 1051 l 457 1051 q 471 1050 463 1051 q 505 1019 505 1040 "},"^":{"ha":754,"x_min":62,"x_max":692,"o":"m 98 540 q 142 581 122 543 q 187 671 159 610 q 213 726 203 707 q 308 903 241 785 q 328 922 315 914 q 335 924 331 924 q 350 901 343 922 q 357 873 353 888 q 392 731 388 742 q 486 560 425 632 q 597 496 543 496 q 640 506 620 496 q 692 597 692 532 l 692 604 q 637 751 689 659 q 620 783 625 772 q 589 838 606 804 q 481 1019 518 971 q 366 1092 426 1090 q 233 989 297 1090 q 106 751 159 871 q 62 594 64 655 q 98 540 64 543 m 454 937 l 448 937 q 437 944 442 940 q 422 958 431 948 q 407 971 412 967 q 402 975 407 971 q 397 979 397 978 q 392 983 396 979 q 387 988 388 986 q 382 994 385 990 q 377 999 378 997 q 374 1004 376 1001 q 372 1010 373 1008 l 372 1020 q 373 1024 373 1021 q 397 1031 380 1035 q 418 1023 407 1028 q 463 952 463 997 l 463 945 q 454 937 461 940 "},"_":{"ha":613,"x_min":60,"x_max":555,"o":"m 392 -13 q 292 -25 349 -14 q 96 -89 231 -38 q 59 -126 60 -103 q 60 -131 59 -128 q 104 -152 67 -152 q 126 -153 113 -152 q 319 -162 300 -162 q 481 -146 411 -162 q 553 -84 552 -128 q 532 -44 552 -59 q 392 -13 490 -14 m 459 -59 q 464 -59 460 -59 q 499 -76 494 -65 l 499 -81 q 493 -87 497 -86 l 488 -87 q 481 -84 488 -87 q 452 -76 469 -79 q 441 -69 443 -75 q 459 -59 442 -60 "},"`":{"ha":358,"x_min":23,"x_max":336,"o":"m 336 727 q 316 769 335 738 q 282 834 304 792 q 184 987 224 947 q 94 1035 141 1034 q 64 1028 79 1035 q 23 960 23 1009 q 35 909 24 943 q 126 795 60 849 q 250 709 141 784 q 301 689 281 689 q 336 727 330 693 m 180 871 q 176 872 179 871 q 172 872 174 872 q 160 879 170 873 q 125 911 148 888 q 117 918 122 914 q 84 960 88 943 q 90 978 84 971 q 115 982 94 985 q 137 974 126 979 q 191 890 189 947 q 191 886 191 890 q 190 882 190 883 q 180 871 189 873 "},"a":{"ha":955,"x_min":-24,"x_max":989,"o":"m 66 206 q 102 210 83 206 q 90 165 99 195 q 79 119 81 136 q 72 76 72 87 q 73 58 72 68 q 117 19 83 19 q 180 102 163 20 l 213 244 q 377 263 294 263 q 530 250 446 263 q 609 56 562 146 q 762 -68 667 -66 q 814 -53 791 -68 q 869 73 869 -18 q 860 176 869 100 q 902 172 880 172 q 936 178 921 172 q 989 258 989 197 q 986 282 989 270 q 818 377 970 361 q 793 465 811 407 q 776 529 781 507 q 755 598 764 571 q 591 939 686 826 q 586 945 589 941 q 442 1025 514 1025 q 378 1009 410 1025 q 245 811 290 963 q 187 568 222 731 q 148 395 163 452 q 75 385 91 388 q -23 307 -11 368 q -24 298 -23 304 q -24 293 -24 294 q -15 252 -24 273 q 66 206 9 206 m 438 799 q 469 623 460 732 q 490 420 484 449 q 491 414 490 419 q 494 407 494 410 q 393 408 460 408 q 252 404 323 408 q 262 441 256 419 q 373 791 331 693 q 411 826 388 825 q 438 799 431 825 m 939 254 q 918 266 929 255 q 887 301 901 290 l 882 304 q 874 308 876 307 q 869 313 872 309 q 864 319 865 316 q 863 327 863 323 q 886 338 865 343 q 949 273 940 320 l 949 264 q 939 254 947 255 m 559 842 q 556 844 557 842 q 552 844 553 844 q 540 849 547 845 q 505 882 534 852 q 498 888 502 884 q 463 930 467 916 q 483 954 464 951 q 494 952 488 954 q 514 944 503 949 q 570 861 566 918 l 570 853 q 559 842 567 844 "},"b":{"ha":792,"x_min":18,"x_max":789,"o":"m 315 19 q 519 71 391 20 q 688 160 633 119 q 789 331 788 237 q 765 416 788 373 q 583 544 712 513 q 586 547 585 545 q 684 715 684 625 q 661 795 684 753 q 529 901 623 860 q 267 949 407 949 q 34 860 88 949 q 18 808 19 836 q 24 777 18 793 q 99 707 42 728 q 104 705 100 707 q 110 704 107 705 q 132 528 117 654 q 126 526 130 526 q 72 473 72 506 q 134 441 76 444 l 140 441 q 146 293 145 345 l 146 222 q 119 156 121 191 q 151 79 119 113 q 315 19 206 19 m 632 734 q 628 734 631 734 q 625 735 627 735 q 589 769 609 739 q 537 822 571 800 q 532 826 536 823 q 498 859 500 844 q 521 878 499 876 q 572 848 541 878 q 617 803 595 826 q 643 750 642 772 l 643 743 q 632 734 640 735 m 743 358 l 736 358 q 722 365 731 359 q 697 399 712 374 q 680 423 686 415 q 648 448 671 433 q 640 452 646 449 q 609 481 612 468 q 628 500 610 498 q 655 494 639 500 q 728 426 684 476 q 754 373 753 395 l 754 366 q 743 358 751 359 m 342 453 l 343 453 q 407 465 397 463 q 419 461 411 464 q 441 454 433 457 q 503 387 503 431 q 479 334 502 358 q 334 283 435 293 q 338 368 335 312 q 342 453 340 425 m 336 697 q 401 681 377 692 q 406 678 403 680 q 452 620 452 654 q 345 541 449 560 q 336 697 345 620 "},"c":{"ha":848,"x_min":11,"x_max":834,"o":"m 533 544 l 593 544 q 785 613 734 544 q 811 699 810 647 q 764 833 811 765 q 722 878 746 856 q 480 962 621 962 q 326 933 407 962 q 151 818 228 897 q 11 476 11 674 q 16 400 11 435 q 155 123 42 241 q 521 -30 302 -30 q 722 11 625 -30 q 834 137 833 57 q 727 220 831 216 q 689 217 713 220 l 582 210 q 549 212 566 210 q 330 343 376 222 q 317 397 317 374 q 533 544 319 541 m 735 700 l 728 700 q 692 743 711 705 q 640 808 673 783 q 636 811 639 810 q 600 852 604 834 q 621 875 601 872 q 675 838 644 873 q 719 784 704 804 q 746 719 745 745 l 746 711 q 735 700 743 701 m 736 114 q 696 144 732 140 q 673 157 675 146 l 673 163 q 674 167 673 164 q 705 174 681 180 q 764 119 762 161 q 742 75 761 79 q 731 81 732 75 l 731 91 q 736 114 736 106 "},"d":{"ha":907,"x_min":20,"x_max":887,"o":"m 149 -53 q 236 -49 193 -53 q 311 -95 266 -94 q 330 -92 320 -95 q 396 -30 376 -80 q 397 -24 396 -28 q 399 -20 397 -22 q 465 1 420 -15 q 735 179 625 61 q 766 218 751 197 q 886 563 886 374 q 781 860 886 734 q 426 1053 655 1009 q 307 1065 369 1065 q 243 1101 282 1100 q 225 1099 235 1101 q 170 1039 186 1086 q 125 1015 146 1029 q 20 826 20 947 q 31 762 20 795 q 37 747 33 755 q 186 621 77 647 q 212 167 212 317 l 212 141 q 118 83 159 118 q 72 9 73 45 q 149 -53 73 -50 m 766 703 l 760 703 q 724 746 742 708 q 674 811 707 785 q 666 817 671 812 q 633 854 637 836 q 637 872 633 867 q 663 876 642 879 q 707 842 682 871 q 751 787 736 807 q 755 781 751 787 q 759 775 758 776 q 762 770 760 774 q 766 764 765 765 q 768 758 766 762 q 772 751 770 754 q 774 745 773 749 q 777 737 776 741 q 777 730 777 734 q 777 722 777 726 l 777 713 q 766 703 774 704 m 389 600 q 472 576 435 593 q 499 562 486 571 q 574 430 574 511 q 572 408 574 418 q 416 222 555 293 q 412 220 414 221 q 389 600 408 401 "},"e":{"ha":781,"x_min":33,"x_max":761,"o":"m 122 844 q 144 616 130 768 q 111 568 113 600 q 113 560 111 564 q 151 530 118 530 q 155 388 155 458 l 155 313 q 159 259 155 278 q 132 247 151 255 q 104 235 114 239 q 42 146 42 205 q 80 77 43 99 q 117 72 92 72 l 157 72 q 307 58 216 72 q 538 34 483 34 q 562 34 551 34 q 716 84 669 37 q 761 201 760 132 q 758 233 761 217 q 536 370 736 370 q 320 328 434 370 q 326 426 321 361 q 330 524 328 491 q 568 633 567 524 q 556 673 568 655 q 429 722 522 722 q 332 705 382 722 q 326 831 330 788 q 511 819 437 819 q 586 822 560 819 q 734 935 732 840 q 718 981 734 960 q 515 1044 669 1043 q 293 1012 414 1044 q 199 1099 262 1097 q 176 1096 187 1099 q 111 974 111 1078 l 111 959 l 109 958 q 107 958 109 958 q 103 956 106 958 q 33 892 33 935 q 122 844 34 845 m 536 996 q 620 977 559 996 q 670 936 669 960 q 650 925 669 926 q 620 937 639 926 q 559 956 586 956 l 557 956 q 509 979 513 956 q 536 996 511 994 m 684 208 q 648 225 670 209 q 587 252 617 251 q 570 254 576 252 q 538 286 538 256 q 540 293 538 289 q 567 312 545 312 q 595 305 571 312 q 648 283 620 297 q 699 224 697 259 q 684 208 697 210 m 473 669 l 476 669 q 514 644 509 661 l 514 637 q 507 629 513 631 l 503 629 q 490 636 499 629 q 480 642 483 642 q 473 643 479 642 q 467 643 469 643 q 457 650 458 644 q 456 654 456 652 q 473 669 457 666 "},"f":{"ha":860,"x_min":8,"x_max":873,"o":"m 136 572 q 104 560 126 568 q 73 548 84 552 q 69 547 72 548 q 20 495 20 528 q 22 487 20 492 q 84 458 30 458 q 119 457 95 458 q 153 456 142 456 q 174 178 174 302 q 174 146 174 168 q 172 115 172 125 q 179 71 172 92 q 270 1 199 1 q 365 126 357 3 q 365 137 365 130 q 380 411 380 374 l 380 446 l 407 446 q 623 468 529 446 q 633 471 627 469 q 728 559 728 495 q 643 636 727 609 q 502 655 579 655 q 357 640 431 655 q 351 666 355 652 q 225 788 323 788 q 199 785 213 788 q 125 671 125 770 q 136 572 125 656 m 604 1077 q 408 1054 517 1077 q 104 968 328 1038 q 102 967 103 968 q 14 911 30 947 q 8 887 8 901 q 11 871 8 879 q 58 830 22 838 l 96 826 l 149 826 q 315 817 216 826 q 598 796 537 796 q 616 796 606 796 q 861 887 810 799 q 873 937 872 906 q 854 1000 873 971 q 604 1077 800 1076 m 617 991 l 621 1000 q 654 1015 632 1013 q 692 1008 661 1015 q 792 977 765 990 q 825 939 823 958 q 800 925 823 926 q 761 940 785 926 q 682 964 719 964 l 674 964 q 617 991 618 964 m 591 591 q 598 590 594 591 q 648 567 643 583 l 648 560 q 639 552 646 553 l 633 552 q 614 559 628 552 q 601 564 605 564 q 591 566 598 564 q 581 567 583 567 q 567 578 568 568 q 591 591 568 589 "},"g":{"ha":982,"x_min":20,"x_max":948,"o":"m 548 374 q 553 339 549 357 q 633 250 571 274 q 647 245 637 248 q 662 241 656 243 q 704 193 704 227 q 697 165 704 179 q 567 117 670 117 q 499 126 533 117 q 354 235 403 153 q 317 359 319 293 q 391 529 319 460 q 494 590 430 566 q 643 628 537 606 q 838 697 779 654 q 920 837 918 754 q 878 949 918 894 q 814 1008 853 981 q 530 1088 694 1088 q 370 1061 445 1088 q 167 920 254 1019 q 20 507 20 751 q 56 283 22 391 q 293 -33 122 76 q 548 -106 411 -104 q 818 -9 707 -104 q 947 262 947 103 q 918 392 947 330 q 769 525 869 498 q 716 532 747 532 q 624 506 666 532 q 548 374 548 461 m 810 788 l 802 788 q 787 796 793 789 q 758 841 774 808 q 738 879 746 868 q 704 913 723 898 q 699 917 703 914 q 658 963 663 941 q 659 967 658 964 q 682 990 662 990 q 693 987 684 990 q 743 947 713 978 q 793 884 776 909 q 822 810 822 848 l 822 800 q 810 788 821 789 m 795 408 q 852 359 831 392 q 856 345 854 353 q 836 326 854 327 q 810 343 823 326 q 784 373 791 370 q 773 378 780 376 q 755 396 755 384 q 783 411 757 410 q 795 408 785 411 "},"h":{"ha":1036,"x_min":19,"x_max":983,"o":"m 19 438 q 28 411 20 425 q 114 377 54 377 q 167 148 149 225 q 205 45 183 75 q 290 -4 241 -3 q 396 134 370 -1 q 423 340 415 270 q 621 305 548 316 q 620 176 620 263 l 620 122 q 637 4 620 45 q 730 -62 669 -61 q 773 -49 750 -62 q 844 71 817 -22 q 890 289 871 172 q 921 297 905 292 q 977 368 977 323 q 974 385 977 376 q 921 445 963 426 q 916 448 917 446 q 959 696 940 613 q 983 860 983 803 q 967 955 983 911 q 833 1054 928 1054 q 807 1051 819 1054 q 696 966 738 1036 q 647 780 662 905 q 625 475 632 640 q 533 484 595 477 q 442 495 472 491 q 464 696 449 553 q 473 818 473 788 q 453 945 473 888 q 423 1004 442 975 q 255 1096 358 1096 q 176 1078 216 1096 q 66 964 99 1043 q 39 819 39 903 q 45 736 39 792 q 84 505 54 648 q 64 498 75 503 q 19 438 19 479 m 380 842 l 372 842 q 340 888 351 848 q 302 966 331 940 q 298 968 301 966 q 262 1010 266 994 q 282 1035 262 1032 q 336 998 307 1035 q 391 861 389 928 l 391 853 q 380 842 387 844 m 913 811 l 906 811 q 876 867 886 817 q 869 895 872 887 q 849 930 864 913 q 842 937 846 933 q 812 977 817 964 q 833 1000 814 997 q 861 990 848 1000 q 865 987 863 989 q 924 845 924 941 l 924 830 q 922 826 924 830 q 922 822 922 823 q 913 811 921 814 "},"i":{"ha":460,"x_min":34,"x_max":411,"o":"m 365 373 q 403 696 389 586 q 411 810 411 768 q 357 972 411 910 q 222 1039 301 1038 q 149 1023 184 1039 q 34 800 35 967 q 65 562 34 711 q 104 393 77 506 q 144 225 132 282 q 151 197 148 209 q 252 95 179 95 q 330 157 308 96 q 365 373 347 220 m 345 812 q 336 803 343 804 l 330 803 q 308 825 313 811 q 305 838 307 830 q 281 906 293 892 q 273 913 278 909 q 248 945 250 933 l 248 952 q 270 964 250 963 q 312 939 290 963 q 345 830 343 891 l 345 812 "},"j":{"ha":734,"x_min":-23,"x_max":678,"o":"m 351 412 q 331 227 351 311 q 316 182 321 191 q 221 118 286 119 q 163 132 190 118 q 77 267 95 167 q 76 274 77 270 q 24 345 64 345 q -22 281 -20 343 q -19 247 -22 270 q 16 136 -8 184 q 172 0 68 41 q 281 -19 225 -19 q 420 11 351 -19 q 605 183 538 64 q 613 197 609 190 q 678 526 678 320 q 674 663 678 571 q 671 765 671 731 q 670 777 671 770 q 647 971 669 913 q 636 994 643 982 q 491 1097 585 1097 q 449 1090 471 1097 q 347 990 384 1066 q 321 842 321 930 q 331 681 321 777 q 351 412 351 471 m 589 857 l 581 857 q 553 902 563 863 q 525 977 541 955 q 518 983 522 979 q 488 1023 492 1010 q 490 1025 488 1023 q 510 1046 491 1046 q 536 1036 524 1046 q 600 891 600 990 l 600 876 q 600 872 600 875 q 598 868 598 869 q 589 857 597 859 "},"k":{"ha":960,"x_min":33,"x_max":967,"o":"m 967 130 q 906 269 966 195 q 712 431 833 354 q 583 502 671 457 q 488 552 519 534 q 472 574 473 560 q 483 598 473 586 q 681 755 544 674 q 853 860 827 842 q 917 947 916 903 q 909 977 917 962 q 844 1010 887 1010 l 838 1010 q 753 985 803 1010 q 464 750 559 887 q 467 817 467 793 q 448 945 467 892 q 414 1008 435 978 q 248 1096 349 1096 q 170 1078 209 1096 q 60 964 92 1043 q 34 823 34 905 q 39 736 34 795 q 118 332 53 601 q 161 148 148 209 q 197 45 178 73 q 283 -4 232 -3 q 389 134 365 -3 q 419 361 401 218 q 425 355 420 359 q 430 349 429 351 q 610 160 511 258 q 635 134 627 144 q 822 22 735 37 q 850 20 831 22 q 902 30 878 22 q 967 130 967 57 m 381 823 l 373 823 q 343 879 353 829 q 338 909 340 899 q 316 943 331 925 q 311 951 315 945 q 281 989 283 977 q 301 1012 282 1009 q 330 1002 316 1012 q 334 1000 331 1002 q 392 857 392 954 l 392 844 q 391 838 392 842 q 391 834 391 836 q 381 823 389 826 m 841 922 q 827 925 834 922 q 796 960 802 935 q 819 985 798 982 q 823 985 821 985 q 827 983 826 983 q 871 947 869 974 q 841 922 867 926 m 880 136 l 873 136 q 837 174 857 141 q 826 190 830 186 q 808 212 815 205 q 783 248 787 232 q 800 273 783 270 q 856 236 827 271 q 891 156 891 194 l 891 148 q 880 136 888 138 "},"l":{"ha":854,"x_min":47,"x_max":905,"o":"m 739 317 q 675 309 707 317 q 648 301 662 307 q 477 189 583 277 q 415 138 435 155 q 401 134 411 136 q 395 144 396 136 q 396 157 395 152 q 471 696 448 355 q 475 791 475 784 q 450 948 475 883 q 427 994 441 971 q 267 1096 366 1096 q 212 1086 239 1096 q 88 963 130 1058 q 85 958 87 960 q 52 736 57 888 q 49 593 49 643 q 85 210 49 372 q 172 26 114 87 q 407 -58 255 -57 q 446 -57 426 -58 q 703 0 534 -52 q 831 56 789 27 q 905 178 903 107 q 878 256 903 221 q 739 317 830 317 m 384 823 l 377 823 q 346 879 357 829 q 340 909 343 899 q 320 943 335 925 q 313 951 317 945 q 283 989 286 977 q 304 1012 285 1009 q 332 1002 319 1012 q 336 1000 334 1002 q 395 857 395 954 l 395 844 q 393 838 395 842 q 393 834 393 836 q 384 823 392 826 m 815 153 q 812 154 814 153 q 808 155 810 155 q 795 161 803 156 q 791 164 793 161 q 742 225 747 201 l 742 235 q 770 247 746 250 q 787 241 779 245 q 826 172 826 220 l 826 164 q 815 153 823 155 "},"m":{"ha":1196,"x_min":34,"x_max":1162,"o":"m 783 597 q 803 256 791 370 q 823 149 811 190 q 834 121 829 134 q 982 20 882 20 q 1027 27 1005 22 q 1143 156 1108 53 q 1161 301 1161 209 l 1161 332 q 1088 845 1152 608 q 1081 865 1085 854 q 899 1044 1029 1044 q 789 1006 838 1044 q 779 1000 784 1004 q 682 823 722 949 l 609 589 q 581 563 597 564 q 552 589 564 564 l 467 859 q 403 1010 431 968 q 281 1086 351 1085 q 138 956 190 1085 q 126 922 133 940 q 61 574 88 810 q 50 477 54 510 q 35 312 35 374 q 91 119 35 193 q 222 50 142 52 q 241 52 231 50 q 377 171 335 62 q 396 290 395 222 q 392 358 396 290 q 353 633 384 449 q 368 665 349 663 q 384 648 378 663 l 460 487 q 480 445 467 473 q 500 401 494 415 q 598 323 541 324 q 617 324 608 323 q 688 423 671 334 q 754 606 707 522 q 769 620 760 618 q 783 597 780 618 m 1005 876 l 1005 868 q 996 859 1004 860 l 987 859 q 974 865 983 860 q 907 929 926 899 q 901 945 902 940 q 928 971 902 968 q 967 956 948 970 q 1005 876 1004 928 m 372 933 l 372 925 q 362 916 370 917 l 354 916 q 340 922 350 917 q 274 986 293 956 q 267 1002 269 996 q 294 1028 269 1025 q 334 1013 315 1027 q 372 933 370 985 "},"n":{"ha":916,"x_min":52,"x_max":864,"o":"m 346 336 q 357 331 351 335 q 359 327 358 328 q 530 71 427 180 q 656 0 597 1 q 700 8 680 0 q 796 175 765 35 q 864 674 864 483 q 846 875 864 779 q 795 1000 830 960 q 690 1046 754 1044 q 639 1036 663 1046 q 608 1020 623 1029 q 521 802 521 958 l 521 795 q 538 609 521 720 q 572 365 570 403 q 572 346 572 350 q 571 339 572 343 q 547 330 562 324 q 522 363 530 336 q 437 757 471 574 q 378 945 411 888 q 374 951 377 948 q 247 1039 321 1039 q 106 898 153 1038 q 88 834 96 868 q 57 471 61 716 q 54 349 56 389 q 53 259 53 319 q 100 46 53 115 q 213 -23 149 -23 q 240 -20 227 -23 q 334 81 305 -4 q 343 164 343 118 q 338 235 343 187 q 334 304 334 281 q 346 336 334 334 m 332 872 l 332 864 q 323 853 331 854 l 313 853 q 301 861 313 853 q 236 930 258 895 q 229 948 231 940 l 229 959 q 254 975 231 974 q 289 964 273 975 q 332 872 328 937 m 769 903 l 769 895 q 760 886 766 888 l 753 886 q 739 892 746 888 q 677 948 697 920 q 670 964 671 956 l 670 972 q 696 986 671 985 q 728 977 712 986 q 769 903 766 954 "},"o":{"ha":818,"x_min":16,"x_max":780,"o":"m 387 642 q 384 681 387 661 q 297 845 370 798 q 369 910 334 883 q 467 945 419 945 q 621 769 582 944 q 636 621 636 693 q 595 395 636 500 q 479 283 555 285 q 464 285 472 283 q 396 335 418 294 q 370 444 372 374 q 374 499 370 467 q 387 642 387 629 m 311 689 l 311 681 q 300 671 309 673 l 293 671 q 279 678 289 673 q 213 742 232 712 q 206 758 208 751 q 233 784 208 781 q 273 769 254 783 q 311 689 309 741 m 572 1027 q 594 1017 582 1025 q 620 967 620 997 q 618 963 618 964 q 613 956 617 958 l 606 956 q 559 998 574 974 q 555 1009 555 1005 l 555 1016 q 572 1027 556 1025 m 220 869 q 212 869 217 869 q 203 868 206 868 q 175 863 190 867 q 39 667 80 833 q 16 486 18 574 q 24 389 16 438 q 157 148 53 239 q 369 68 248 69 q 415 71 399 68 q 502 96 460 77 q 709 313 635 157 q 779 617 779 450 q 774 697 779 656 q 663 1000 754 890 q 481 1093 587 1092 q 373 1069 423 1093 q 220 869 263 1015 "},"p":{"ha":800,"x_min":14,"x_max":777,"o":"m 149 343 l 193 343 l 193 266 q 191 247 193 260 q 191 229 191 235 q 203 156 191 191 q 205 153 203 155 q 285 91 229 91 q 361 149 328 96 q 378 248 376 183 q 380 304 378 267 q 382 359 382 340 q 385 361 384 359 q 389 361 388 361 q 513 400 454 374 q 757 642 697 481 q 777 758 777 699 q 754 876 777 822 q 745 897 750 886 q 391 1101 654 1062 q 289 1109 340 1109 q 187 1097 239 1109 q 129 1074 157 1089 q 14 895 14 1013 q 37 811 14 850 q 164 730 80 741 q 187 487 183 537 q 80 414 100 472 q 77 395 77 401 q 79 385 77 391 q 149 343 85 343 m 682 856 l 682 848 q 671 837 680 838 l 663 837 q 650 845 662 837 q 583 909 602 879 q 576 925 578 918 q 604 949 578 947 q 643 936 624 949 q 682 856 681 906 m 388 728 q 418 722 403 726 q 513 614 513 692 q 506 578 513 595 q 389 495 483 511 q 391 600 391 530 q 388 728 391 684 "},"q":{"ha":836,"x_min":15,"x_max":837,"o":"m 385 642 q 382 681 385 661 q 296 845 369 798 q 368 910 332 883 q 465 945 418 945 q 620 769 581 944 q 635 620 635 693 q 617 465 635 538 q 605 483 606 480 q 510 544 562 544 q 480 538 494 544 q 437 461 437 518 q 477 358 438 425 q 525 297 507 317 q 477 283 510 285 q 463 285 471 283 q 395 335 416 294 q 369 444 370 374 q 373 499 369 467 q 385 642 385 629 m 309 689 l 309 681 q 298 671 308 673 l 292 671 q 278 678 288 673 q 212 742 231 712 q 205 758 206 751 q 232 784 206 781 q 271 769 252 783 q 309 689 308 741 m 571 1027 q 593 1017 581 1025 q 618 967 618 997 q 617 963 617 964 q 612 956 616 958 l 605 956 q 557 998 572 974 q 553 1009 553 1005 l 553 1016 q 571 1027 555 1025 m 518 503 q 538 495 528 502 q 564 445 564 476 l 564 439 q 557 433 562 435 l 553 433 q 505 476 524 449 q 499 487 499 484 l 499 494 q 518 503 500 502 m 836 100 q 806 175 836 127 q 712 321 745 273 q 777 617 777 454 q 773 697 777 656 q 662 1000 753 890 q 480 1093 586 1092 q 372 1069 422 1093 q 218 869 262 1015 q 210 869 216 869 q 201 868 205 868 q 174 863 189 867 q 38 667 79 833 q 15 486 15 574 q 23 389 15 438 q 156 148 52 239 q 368 68 247 69 q 624 187 503 69 q 692 109 675 129 q 708 87 692 107 q 783 41 742 41 q 802 45 792 41 q 836 100 836 58 "},"r":{"ha":842,"x_min":19,"x_max":829,"o":"m 132 156 q 141 85 132 113 q 145 76 144 81 q 220 22 171 22 q 252 28 236 23 q 317 179 308 50 q 338 351 324 258 q 354 354 343 353 q 370 357 365 357 q 412 332 370 357 q 423 324 418 328 q 521 212 464 296 q 623 99 578 127 q 715 69 666 71 q 770 81 745 69 q 827 178 827 111 q 787 283 827 233 q 650 391 738 345 q 568 425 635 397 q 608 448 587 435 q 762 642 718 521 q 784 758 784 699 q 760 876 783 822 q 757 884 758 879 q 396 1101 671 1058 q 294 1109 346 1109 q 193 1097 244 1109 q 137 1076 164 1089 q 19 898 19 1015 q 39 818 20 856 q 159 731 79 745 q 152 475 159 617 q 142 471 146 472 q 83 396 83 439 q 85 380 84 388 q 142 343 98 343 q 132 156 132 179 m 689 856 l 689 848 q 678 837 686 840 l 671 837 q 656 845 666 840 q 590 909 610 879 q 583 925 585 920 q 612 949 585 948 q 650 936 632 949 q 689 856 688 907 m 739 222 l 739 214 q 728 205 736 206 l 720 205 q 707 212 716 206 q 640 275 661 245 q 633 292 635 285 q 661 316 635 315 q 700 302 681 316 q 739 222 736 274 m 381 731 q 433 719 407 727 q 518 614 518 686 q 503 557 518 583 q 358 491 464 495 q 381 731 377 623 "},"s":{"ha":930,"x_min":1,"x_max":906,"o":"m 583 766 q 648 727 610 766 q 658 718 651 724 q 770 650 724 650 q 811 659 791 650 q 818 663 814 661 q 882 783 882 701 q 810 941 882 860 q 798 955 804 948 q 505 1101 667 1101 q 296 1021 384 1101 q 191 783 191 926 q 290 532 193 640 q 358 468 309 511 q 465 346 439 397 q 476 309 476 321 q 473 293 476 302 q 426 264 463 264 q 365 292 389 264 q 320 365 349 312 q 296 408 305 393 q 170 487 247 487 q 117 477 142 487 q 12 361 42 450 q 1 288 1 328 q 79 81 1 190 q 152 -1 111 38 q 502 -163 305 -149 q 517 -163 506 -163 q 533 -164 528 -164 q 802 -71 696 -163 q 810 -62 806 -68 q 906 148 906 27 q 895 218 906 182 q 854 305 883 263 q 718 444 818 359 q 671 483 686 469 q 537 677 564 578 q 533 711 533 693 q 583 766 534 765 m 770 803 q 750 811 765 803 q 684 884 704 849 q 677 903 678 895 q 705 932 678 929 q 726 928 716 932 q 736 920 731 925 q 783 823 777 887 l 783 815 q 770 803 780 804 m 815 199 l 815 190 q 804 178 812 179 q 784 187 798 178 q 716 259 736 227 q 709 279 712 270 q 736 307 711 304 q 776 292 757 307 q 815 199 814 260 m 248 292 q 228 300 243 292 q 161 373 182 338 q 155 392 156 384 q 183 420 155 418 q 203 416 194 420 q 214 408 208 414 q 259 312 255 376 l 259 304 q 248 292 258 293 "},"t":{"ha":956,"x_min":-27,"x_max":987,"o":"m 536 586 q 517 597 526 587 q 500 686 503 620 q 500 716 500 707 l 499 727 q 500 738 499 738 q 502 746 500 741 q 526 760 509 765 q 548 747 537 757 q 570 670 560 732 q 572 643 572 654 q 536 586 570 591 m 91 859 l 132 859 q 362 845 235 859 q 350 669 362 776 q 327 381 327 449 q 377 138 327 212 q 380 133 378 137 q 490 72 423 72 q 600 132 553 73 q 667 423 666 217 q 604 823 666 579 q 680 822 629 822 q 700 822 689 822 q 928 867 863 823 q 986 964 985 906 q 834 1095 985 1059 q 655 1111 755 1111 q 545 1105 602 1111 q 69 1000 380 1089 q 56 996 62 998 q -26 920 -26 971 q -23 898 -26 909 q 91 859 -8 859 m 921 958 l 921 948 q 910 939 920 941 l 903 939 q 888 945 898 940 q 822 1009 842 979 q 815 1027 818 1020 q 844 1051 817 1048 q 882 1038 864 1051 q 921 958 920 1008 "},"u":{"ha":903,"x_min":34,"x_max":856,"o":"m 841 661 q 844 694 841 675 q 856 769 856 762 q 852 798 856 779 q 849 825 849 815 q 849 836 849 827 q 850 845 850 841 q 849 865 850 854 q 779 956 842 956 q 768 954 777 956 q 742 940 754 949 q 699 761 699 906 q 700 654 699 726 q 703 548 703 583 q 597 218 703 308 q 517 189 559 190 q 463 203 488 189 q 357 431 359 267 q 370 557 357 483 q 396 742 396 690 q 370 864 396 807 q 222 966 321 966 q 156 948 190 966 q 69 844 99 917 q 34 536 34 755 q 45 393 34 452 q 66 307 53 349 q 411 39 155 39 q 488 47 450 39 q 777 292 685 91 q 833 499 806 351 q 844 590 844 560 q 842 627 844 602 q 841 661 841 650 m 206 876 q 231 888 212 883 l 241 887 l 254 884 l 283 864 l 304 831 l 312 795 l 312 792 l 311 789 l 311 787 q 301 776 309 780 l 293 776 l 289 777 l 281 784 l 255 802 l 232 823 l 213 848 l 208 859 l 206 864 l 206 876 m 746 873 q 772 901 749 897 q 781 899 776 901 q 806 865 806 890 q 804 857 806 863 q 777 836 798 836 q 769 837 774 836 q 746 873 746 844 "},"v":{"ha":860,"x_min":28,"x_max":841,"o":"m 783 1078 q 707 994 732 1076 q 635 637 678 897 q 525 225 589 368 q 505 201 517 203 q 484 217 494 202 q 426 505 445 321 q 396 774 406 722 q 327 949 376 890 q 321 956 324 952 q 193 1020 266 1020 q 159 1016 178 1020 q 140 1009 149 1013 q 30 770 30 963 l 30 755 q 146 300 38 526 q 340 62 227 132 q 477 23 406 24 q 586 58 544 24 q 650 151 621 88 q 700 275 677 208 q 793 718 747 418 q 831 941 818 868 q 841 1000 840 979 q 837 1025 840 1013 q 783 1078 825 1078 m 292 758 l 285 758 q 251 800 266 764 q 210 868 237 842 q 205 872 208 869 q 172 913 176 895 q 197 936 174 930 q 232 920 208 936 q 281 857 258 898 q 304 783 301 817 q 292 758 304 761 m 764 1015 q 769 1013 766 1015 q 791 991 791 1009 q 762 963 789 964 q 741 986 746 968 q 764 1015 742 1012 "},"w":{"ha":1336,"x_min":30,"x_max":1305,"o":"m 1135 966 q 1116 964 1126 966 q 990 867 1039 954 q 981 849 986 859 q 937 686 963 808 q 926 636 933 665 q 875 399 880 431 q 873 395 875 397 q 856 377 868 370 q 849 384 850 378 q 846 393 846 388 q 810 526 838 435 q 793 570 799 555 q 688 655 757 655 q 639 646 666 655 q 538 557 585 624 q 468 435 528 543 q 454 422 461 423 q 441 445 442 425 q 439 463 439 452 q 419 785 431 703 q 214 1084 377 1046 q 180 1088 197 1088 q 60 1015 107 1086 q 31 901 31 968 q 62 709 31 852 q 92 510 79 633 q 136 195 119 274 q 313 4 176 7 q 369 12 339 4 q 498 110 441 34 q 587 274 526 148 q 651 399 608 315 q 697 488 682 458 q 704 496 703 495 l 707 496 q 712 491 711 494 q 713 486 713 491 q 728 345 722 439 q 734 267 731 293 q 803 41 749 122 q 935 -47 864 -46 q 1009 -22 977 -46 q 1084 85 1042 4 q 1251 511 1141 208 q 1261 541 1253 518 q 1305 738 1305 659 q 1282 856 1303 802 q 1135 966 1237 966 m 300 909 l 300 901 q 290 890 297 892 l 282 890 q 269 898 277 891 q 201 962 221 932 q 194 978 197 971 q 222 1002 197 1000 q 262 989 243 1002 q 300 909 298 959 m 1219 798 l 1219 789 q 1210 779 1217 781 l 1202 779 q 1188 787 1196 781 q 1120 850 1141 821 q 1114 867 1116 860 q 1142 891 1115 890 q 1181 878 1162 891 q 1219 798 1218 849 "},"x":{"ha":1032,"x_min":11,"x_max":1009,"o":"m 892 977 q 815 958 853 977 q 802 949 810 954 q 689 837 755 922 q 526 635 581 701 q 416 798 479 703 q 412 804 415 799 q 407 811 410 808 q 283 959 338 920 q 172 997 229 997 q 100 978 133 997 q 35 850 35 939 q 43 795 35 825 q 49 776 45 787 q 140 632 66 727 q 328 395 324 399 q 58 104 187 232 q 54 100 57 103 q 11 27 11 58 q 19 -3 11 9 q 41 -23 27 -16 q 72 -30 54 -30 q 148 0 95 -30 q 475 218 332 110 q 719 -43 602 72 q 728 -52 722 -45 q 738 -61 734 -57 q 859 -121 800 -121 q 892 -115 876 -121 q 951 -27 951 -95 q 916 73 951 11 q 911 81 913 79 q 694 406 841 203 q 947 704 836 541 q 955 716 949 708 q 960 723 959 720 q 1008 854 1008 796 q 997 910 1008 884 q 892 977 968 977 m 290 838 l 290 830 q 279 821 289 823 l 273 821 q 258 827 267 822 q 191 891 212 861 q 184 909 187 902 q 213 933 186 930 q 251 920 233 933 q 290 838 289 890 m 947 829 l 947 821 q 936 811 945 812 l 929 811 q 916 818 925 812 q 849 882 868 852 q 842 899 844 891 q 869 924 844 921 q 909 910 890 924 q 947 829 945 880 "},"y":{"ha":975,"x_min":4,"x_max":941,"o":"m 4 873 q 38 769 4 822 q 53 749 43 760 q 178 637 84 708 q 414 422 321 529 q 453 378 439 392 q 427 -85 437 225 q 481 -180 429 -172 q 540 -130 510 -179 q 685 109 633 19 q 933 766 895 477 q 940 849 940 810 q 916 974 940 918 q 899 1002 909 987 q 770 1080 849 1080 q 594 928 667 1078 q 505 674 540 811 q 380 846 449 758 q 370 857 374 852 q 222 987 289 958 q 142 1004 183 1004 q 72 987 106 1004 q 4 873 4 951 m 240 831 q 227 836 240 831 q 146 886 175 860 q 132 910 132 901 q 160 930 134 928 q 193 924 175 930 q 251 853 235 902 q 254 845 254 849 q 240 831 252 834 m 856 920 q 837 924 854 920 q 743 967 776 944 q 727 987 728 978 q 760 1006 728 1005 q 802 998 780 1006 q 868 937 850 977 q 871 930 869 935 q 856 920 869 922 "},"z":{"ha":926,"x_min":30,"x_max":911,"o":"m 221 681 q 419 718 294 681 q 490 738 467 731 q 510 741 500 741 q 534 719 533 739 q 522 700 534 713 q 146 339 308 506 q 79 213 81 274 q 87 161 80 186 q 288 35 119 71 q 481 16 380 16 q 760 47 617 16 q 872 96 833 61 q 911 190 910 133 q 888 277 910 232 q 883 288 886 281 q 728 373 827 373 q 637 357 693 373 q 509 328 544 328 q 476 353 479 328 q 499 389 477 366 q 743 640 636 538 q 761 658 749 646 q 784 681 776 673 q 864 845 864 762 q 745 1002 863 943 q 473 1061 628 1061 q 311 1047 400 1061 q 80 945 151 1020 q 31 829 31 894 q 47 760 31 791 q 221 681 92 681 m 774 827 q 770 829 774 827 q 766 829 768 829 q 754 836 765 830 q 719 868 742 845 q 713 873 718 869 q 680 917 684 901 q 684 935 680 929 q 709 939 688 943 q 732 930 720 936 q 787 848 783 903 q 785 844 785 846 q 785 838 785 841 q 774 827 783 830 m 817 212 q 812 212 815 212 q 808 213 810 213 q 796 220 806 213 q 761 251 784 229 q 755 258 760 254 q 720 300 724 283 q 726 317 720 312 q 751 323 730 326 q 773 313 762 320 q 827 231 825 286 q 827 227 827 229 q 826 222 826 224 q 817 212 825 213 "},"{":{"ha":382,"x_min":45,"x_max":335,"o":"m 332 -186 q 324 -160 331 -171 q 269 -140 315 -149 q 229 -106 229 -132 q 236 -76 229 -98 q 266 -1 245 -50 q 324 182 317 114 q 324 193 324 184 q 326 203 326 199 q 248 358 324 296 q 328 517 327 419 q 327 528 328 519 q 327 537 327 534 q 271 716 320 605 q 239 795 248 768 q 233 819 233 811 q 255 857 235 848 q 296 865 260 859 q 335 901 335 872 q 334 910 335 905 q 275 960 328 954 q 235 958 267 960 q 176 943 203 952 q 56 772 56 898 q 57 753 56 764 q 117 617 62 699 q 146 570 137 586 q 165 499 164 529 q 106 411 164 439 q 96 408 100 410 q 46 355 46 388 q 103 307 47 330 q 110 304 106 305 q 163 218 163 274 q 161 205 163 210 q 110 96 155 161 q 80 50 90 66 q 53 -54 53 -3 q 66 -127 53 -94 q 232 -239 106 -221 q 266 -241 255 -241 q 289 -239 277 -241 q 332 -186 332 -225 m 187 304 q 208 321 190 319 q 228 317 217 320 q 274 251 267 302 q 274 247 274 251 q 275 243 275 244 q 258 231 273 232 q 227 250 247 232 q 220 256 221 255 q 187 304 189 283 m 263 887 q 256 888 260 887 q 232 918 232 892 q 250 937 236 933 l 255 937 q 288 911 279 932 q 263 887 286 890 "},"|":{"ha":362,"x_min":65,"x_max":298,"o":"m 262 -136 q 297 433 297 119 q 286 818 297 613 q 264 958 281 909 q 260 966 263 960 q 184 1035 235 1035 q 140 1015 161 1034 q 83 841 98 971 q 65 488 65 673 q 118 -123 65 183 q 142 -214 129 -186 q 193 -254 165 -252 q 203 -252 199 -254 q 224 -240 214 -248 q 262 -136 247 -218 m 248 886 l 244 886 q 231 911 233 891 q 218 949 224 941 q 199 975 202 968 l 199 981 q 206 987 203 986 q 216 987 210 989 q 254 895 252 967 q 252 891 254 894 q 248 886 252 888 "},"}":{"ha":382,"x_min":47,"x_max":338,"o":"m 118 960 q 94 956 106 959 q 52 905 52 943 q 54 887 52 895 q 107 861 62 868 q 130 857 126 859 q 153 819 151 848 q 148 795 152 811 q 118 722 138 769 q 60 537 66 605 q 60 528 60 534 q 58 517 58 519 q 134 359 60 422 q 56 203 57 298 q 56 193 56 199 q 57 182 57 186 q 113 1 64 114 q 144 -76 136 -50 q 151 -102 149 -92 q 138 -130 149 -119 q 85 -146 130 -137 q 49 -182 49 -155 q 109 -241 56 -225 q 149 -239 117 -243 q 214 -221 183 -233 q 328 -54 328 -175 q 318 7 328 -23 q 296 58 308 38 q 265 104 283 77 q 237 149 247 132 q 218 220 218 190 q 278 307 220 278 q 286 311 283 309 q 338 362 338 331 q 281 411 336 388 q 274 415 278 412 q 221 500 221 444 q 222 514 221 507 q 274 623 229 557 q 302 670 294 654 q 331 772 330 722 q 320 838 331 807 q 152 958 283 939 q 118 960 129 959 m 190 860 q 210 876 193 875 q 231 872 220 876 q 277 807 270 859 q 277 803 277 806 q 278 799 278 800 q 262 787 275 788 q 229 806 250 787 q 222 812 224 811 q 190 860 191 840 m 174 107 q 189 126 175 125 q 209 121 199 126 q 243 56 243 103 q 241 39 243 46 q 227 22 240 24 q 209 35 218 23 q 176 90 193 54 q 174 107 174 94 "},"~":{"ha":911,"x_min":68,"x_max":722,"o":"m 68 336 q 69 319 68 328 q 121 274 79 274 q 145 281 134 274 q 167 331 155 289 q 205 368 176 368 q 235 361 220 368 q 316 323 263 350 q 486 258 423 267 q 522 255 511 255 q 623 282 578 256 q 720 450 708 332 l 720 460 q 678 524 718 518 q 669 522 674 524 q 633 486 648 519 q 627 471 629 476 q 537 416 598 418 q 465 441 507 416 q 418 475 449 450 q 370 510 388 499 q 254 544 316 544 q 184 530 217 544 q 72 374 96 494 q 68 336 68 357 m 357 426 q 347 416 354 419 q 331 416 339 415 q 286 427 320 419 q 270 431 282 429 q 222 464 222 439 q 262 487 224 486 q 357 435 328 487 q 357 426 359 430 m 692 467 q 670 448 688 452 q 650 468 652 449 q 670 490 651 487 q 692 467 690 488 "}}}
